<svg xmlns="http://www.w3.org/2000/svg" viewBox="0 0 518.36 164.34"><defs><style>.cls-1{fill:#14377d;}.cls-2{fill:#fff;}</style></defs><g id="Layer_2" data-name="Layer 2"><g id="Layer_1-2" data-name="Layer 1"><path class="cls-1" d="M191.94,102.78v-5c9.28-1.39,10.2-3.09,8-9.58-1.7-5.1-4.33-12.36-7.11-19.78H162.11c-2,5.72-4.17,11.59-6,17.77-2.63,8.35-1.86,10.2,9.42,11.59v5H131.36v-5c10-1.39,12-2.78,17.31-16.07l31.68-79.9L187.15,0c9.89,26.89,19.63,54.71,29.68,81.3,5.1,13.6,7.11,15.3,17,16.53v5ZM178,25.35h-.46c-4.48,11.9-8.66,23.95-13,35.55h25.65Z"/><path class="cls-1" d="M284.06,2.32c11.75,0,20.56,1.7,26.74,6.18,6.8,4.79,10.82,12.37,10.82,22.41,0,20.56-15.15,30-31.07,32a31.52,31.52,0,0,1-6.49.16l-11-2.63V82.84c0,13,1.39,13.91,14.83,15v5H242.18v-5c11.9-1.08,13.29-2.16,13.29-15.14V22.57c0-13.3-1.39-14.22-12.37-15.15V2.32Zm-11,52.39a28.09,28.09,0,0,0,9.42,1.55c7.27,0,19.63-4.48,19.63-24.88C302.14,14.22,291.94,8,281.43,8c-3.4,0-5.87.77-6.8,1.54-1.08.93-1.54,2.63-1.54,5.72Z"/><path class="cls-1" d="M406.55,77.59c-.93,6.18-4,20.55-5.41,25.19H323.86v-5c13.45-1.08,14.84-2.16,14.84-15.14V22.57C338.7,9,337.31,8.35,326,7.42V2.32h71.25c.16,3.09.93,13.91,1.55,22.87l-5.26.78c-1.39-5.88-3.24-10.36-5.71-13.3s-6.65-4-16.23-4h-9c-5.41,0-5.87.3-5.87,5.25V47.45h11.9c13.29,0,14.84-.93,16.85-11.59h5.25v30.6h-5.25c-2-11.13-3.56-11.75-16.85-11.75h-11.9V82.22c0,7.42.77,11,3.71,12.68,2.78,1.54,8.19,1.7,14.53,1.7,9.43,0,14.53-1.08,18.08-5.1,2.94-3.25,5.72-8.35,8.35-14.84Z"/><path class="cls-1" d="M468.62,102.78v-5c10-1.7,9.89-3.55,7.11-8.65-2.32-4-7.11-11.9-17.78-29.52C450.53,70.79,444.2,81,440.33,88.25c-3.71,6.65-2.62,7.88,7.73,9.58v5H410.5v-5c8.66-.92,13.91-3.24,18.4-8.65C433.84,83,443.58,70,454.09,53.94c-7.57-12.52-14.37-23.49-21.48-34.77C427.35,10.82,424,8.5,413.29,7.42V2.32h43.58v5.1c-9,1.54-8.81,3.25-6.8,7,3.56,6.34,8.81,14.69,15.3,25a229.69,229.69,0,0,0,14.38-22.87c3.24-6,2.78-7.58-7.42-9.12V2.32H509v5.1c-10.51,1.24-14.22,2.94-20.71,11-4.64,5.72-10.67,14.07-19.17,26.43,8.81,13.91,16.69,26.74,25.19,39.57,6.65,10.35,10.05,12.36,20.71,13.44v5Z"/><path class="cls-2" d="M16.37,125.55c5.66,0,9.77,2,9.77,7.38,0,5.83-4.93,9.07-10.5,9.46a6.82,6.82,0,0,1-1.43,0l-3.06-.82-1.26,6.52c-.69,3.55-.34,3.81,3.5,4.15l-.26,1.34H.61l.3-1.34c3.19-.3,3.5-.6,4.23-4.15l3.33-17c.69-3.54.43-3.88-2.85-4.19l.3-1.33ZM11.53,140a7.48,7.48,0,0,0,2.68.51c3.54,0,6.74-3.28,6.74-8,0-3.54-1.9-5.4-4.84-5.4a3.49,3.49,0,0,0-1.72.35c-.44.26-.7.82-1,2.2Z"/><path class="cls-2" d="M26.8,138.46c2.42-2.55,5.23-4.4,6.7-4.4,1.25,0,1.51,1.59.77,5l-.38,2h.17c2.07-4,4.4-7,6.26-7a2.39,2.39,0,0,1,2,1.12,2.09,2.09,0,0,1-.13,2.37,5.84,5.84,0,0,1-1.38,1.6.76.76,0,0,1-1,0,2.49,2.49,0,0,0-1.64-.78c-.48,0-1,.26-1.9,1.51a21.63,21.63,0,0,0-2.68,5c-.56,2.5-1.21,5.79-1.64,8.33a21.48,21.48,0,0,0-4.28.87l-.3-.39c1.08-4.54,2.12-9.29,3-13.91.26-1.42.22-2-.09-2a7.65,7.65,0,0,0-2.8,1.77Z"/><path class="cls-2" d="M41.83,147.14a12.91,12.91,0,0,1,6.48-11.57,11.86,11.86,0,0,1,5.31-1.51c4,0,6.18,2.63,6.18,6.82a13.81,13.81,0,0,1-4.63,10.45,11.39,11.39,0,0,1-7.12,2.77C43.25,154.1,41.83,150.51,41.83,147.14ZM50.9,152c1.9-.78,4-5.36,4-11.28,0-3.37-1.25-4.88-2.89-4.88a3.29,3.29,0,0,0-1.25.26c-1.34.6-4.06,4.23-4.06,11.14,0,3.29,1.34,5,3,5A3.59,3.59,0,0,0,50.9,152Z"/><path class="cls-2" d="M81.52,135.14a6.59,6.59,0,0,1-3.46,2.28,8.08,8.08,0,0,1-.86.13,6.2,6.2,0,0,1,.3,2.12,8.14,8.14,0,0,1-3.11,6.22,15.07,15.07,0,0,1-6.13,2.68,1.47,1.47,0,0,0-.65,1c0,.56,1,1.21,3,2.29,4.44,2.16,6.17,3.89,6.17,5.88,0,3.76-6.35,6.61-10.93,6.61s-8-2.16-8-4.84c0-2,2.77-3.8,7.09-5.88a2.88,2.88,0,0,1-1.56-2.16c0-.86.86-1.72,3.07-2.93-2.9-.56-4.19-2.47-4.19-5.23A8.84,8.84,0,0,1,66,136.22a11,11,0,0,1,6-2.16,6.16,6.16,0,0,1,4,1.21,11.22,11.22,0,0,0,5.1-1Zm-8.85,24.32c0-1-.87-2-2.77-3.07a37.43,37.43,0,0,0-3.67-1.95c-2,1.08-3.63,2.68-3.63,4.24,0,2.07,2.59,3.67,5.31,3.67C70.85,162.35,72.67,161,72.67,159.46Zm.51-20.18c0-2.07-.69-3.63-2.2-3.63-1.21,0-2.25,1.17-2.89,2.47a11.83,11.83,0,0,0-1.3,5.35c0,2,.82,3.29,2.12,3.29C70.94,146.76,73.18,143.86,73.18,139.28Z"/><path class="cls-2" d="M80.47,138.46c2.42-2.55,5.23-4.4,6.7-4.4,1.25,0,1.51,1.59.77,5l-.38,2h.17c2.07-4,4.4-7,6.26-7a2.39,2.39,0,0,1,2,1.12,2.09,2.09,0,0,1-.13,2.37,5.84,5.84,0,0,1-1.38,1.6.76.76,0,0,1-1,0,2.49,2.49,0,0,0-1.64-.78c-.48,0-1,.26-1.9,1.51a21.63,21.63,0,0,0-2.68,5c-.56,2.5-1.21,5.79-1.64,8.33a21.48,21.48,0,0,0-4.28.87l-.3-.39c1.08-4.54,2.12-9.29,3-13.91.26-1.42.22-2-.09-2a7.65,7.65,0,0,0-2.8,1.77Z"/><path class="cls-2" d="M114.88,149.22c-2.72,3.28-5.83,4.88-7.17,4.88-.95,0-1.81-.61-1.08-4.28l.6-2.93h-.08a28,28,0,0,1-4.71,5.09A7.91,7.91,0,0,1,98,154.1c-1.47,0-2.85-1.73-2.85-5.14a15.82,15.82,0,0,1,4.92-11.28c2.08-1.77,5.58-3.62,8.86-3.62a12,12,0,0,1,2.72.3,11.69,11.69,0,0,0,2.2.3l.22.17c-.87,3.33-2,8.43-2.9,13.65-.25,1.39-.17,1.77.09,1.77a9.15,9.15,0,0,0,3-2.16Zm-7.08-5.75c.56-2,1.29-5.44,1.51-6.78a6.47,6.47,0,0,0-2.64-.6,3.63,3.63,0,0,0-2.29.73c-2.81,2-4.32,7.3-4.32,11.19,0,1.81.39,2.59,1,2.59C102.61,150.6,106.8,145.55,107.8,143.47Z"/><path class="cls-2" d="M147.91,149.65c-2.64,3-5.62,4.45-6.91,4.45s-1.86-1-1.08-4.36l2.29-9.72c.43-1.77.26-2.55-.26-2.55-1.6,0-6,5-7.48,7.73-.56,2.38-1.2,5.31-1.72,8a20,20,0,0,0-4.37.87l-.3-.39c1-4.32,2.07-8.55,3-12.61.56-2.64.52-3.63-.17-3.63-1.69,0-6.14,5.18-7.43,7.77-.65,2.12-1.34,5.23-1.9,8a20.77,20.77,0,0,0-4.28.87l-.34-.39c1.29-4.75,2.37-9.37,3.45-14.3.3-1.25.26-1.64,0-1.64a8.29,8.29,0,0,0-2.81,1.86l-.56-1.17c2.68-2.76,5.44-4.4,6.91-4.4s1.51,1.59.65,5.14l-.65,2.76H124a26.08,26.08,0,0,1,7.13-7,5.53,5.53,0,0,1,2.89-.95c1.21,0,2.59.77,1.38,6.39l-.3,1.34h.09a25.31,25.31,0,0,1,7.17-6.83,5.38,5.38,0,0,1,2.8-.9c1.08,0,2.64.6,1.26,6.43l-2,8.47c-.26,1.08-.13,1.38.13,1.38a7.77,7.77,0,0,0,2.72-1.86Z"/><path class="cls-2" d="M163.89,134.75c.78-3.46,1.82-6.09,3.85-8.17,2.24-2.29,5-3.5,6.69-3.5,1.9,0,3,1.17,2.94,2.12a3.11,3.11,0,0,1-1.42,2.2.78.78,0,0,1-1.13-.08c-1.08-1.26-2-2-2.89-2-1.08,0-2.07,1.08-3.41,9.42h5l-.95,1.59-4.4.35c-.74,4.23-1.26,7.65-2.38,12.53-1.6,7.21-3.45,10.19-6.22,12.7-1.86,1.68-3.54,2.42-4.79,2.42s-2.86-1-2.81-2a3.17,3.17,0,0,1,1.38-2.25c.35-.26.6-.3.91-.08a5.44,5.44,0,0,0,3.15,1.38,1.71,1.71,0,0,0,1.56-1c.34-.61,1-2.25,2.24-9.64,1-6,1.6-9.85,2.34-14.08H160l-.18-.47,1.43-1.47Z"/><path class="cls-2" d="M171.1,147.14a12.93,12.93,0,0,1,6.47-11.57,11.94,11.94,0,0,1,5.32-1.51c4,0,6.17,2.63,6.17,6.82a13.8,13.8,0,0,1-4.62,10.45,11.39,11.39,0,0,1-7.12,2.77C172.52,154.1,171.1,150.51,171.1,147.14Zm9.07,4.89c1.9-.78,4-5.36,4-11.28,0-3.37-1.25-4.88-2.89-4.88a3.29,3.29,0,0,0-1.25.26c-1.34.6-4.06,4.23-4.06,11.14,0,3.29,1.34,5,3,5A3.59,3.59,0,0,0,180.17,152Z"/><path class="cls-2" d="M191.23,138.46c2.42-2.55,5.22-4.4,6.69-4.4,1.25,0,1.51,1.59.78,5l-.39,2h.17c2.08-4,4.41-7,6.27-7a2.39,2.39,0,0,1,2,1.12,2.09,2.09,0,0,1-.12,2.37,5.69,5.69,0,0,1-1.39,1.6.75.75,0,0,1-1,0,2.53,2.53,0,0,0-1.65-.78c-.47,0-1,.26-1.9,1.51a21.57,21.57,0,0,0-2.67,5c-.57,2.5-1.21,5.79-1.65,8.33a21.23,21.23,0,0,0-4.27.87l-.31-.39c1.08-4.54,2.12-9.29,3-13.91.25-1.42.21-2-.09-2a7.67,7.67,0,0,0-2.81,1.77Z"/><path class="cls-2" d="M217.53,144.68c.44,3,2.34,7.91,6.91,7.91a4.72,4.72,0,0,0,4.89-5.06c0-2.2-1.3-3.93-3.63-5.74l-1.3-.95c-2.42-2-5-4.37-5-7.91,0-4.88,3.89-8.08,9.16-8.08a13.43,13.43,0,0,1,4.62.83c.78.25,1.43.56,1.82.69-.18,1.72-.18,4-.22,6.39l-1.43.13c-.34-2.9-1.46-6.44-5.18-6.44a4.45,4.45,0,0,0-4.41,4.67c0,2.29,1.39,3.71,3.68,5.4l1.29.95c3,2.16,5.31,4.49,5.31,8.21,0,5.31-4.62,8.55-10.06,8.55a11.66,11.66,0,0,1-7.73-2.68c0-1,0-3.37-.09-6.7Z"/><path class="cls-2" d="M250.57,149.22c-2.85,3.19-6.22,4.88-8.9,4.88-3.2,0-5.1-2.25-5.1-6.44a14.26,14.26,0,0,1,4.62-10.41c1.86-1.64,4.93-3.19,7.22-3.19,2,0,3.67,1,3.67,2.37a2.82,2.82,0,0,1-1.68,2.42.74.74,0,0,1-1.17-.22c-1.12-1.64-2.2-2.41-3.37-2.41s-1.94.86-2.68,2.33a18,18,0,0,0-1.73,7.95c0,3.11,1.08,4.49,2.85,4.49,2,0,4.5-1.9,5.53-2.94Z"/><path class="cls-2" d="M272.7,149.74c-2.76,2.89-5.49,4.36-7,4.36-1.21,0-1.82-1.17-1-4.62l2.12-9.42c.48-1.86.22-2.59-.34-2.59-1.6,0-5.49,3.8-7.61,7.26-.52,2.11-1.29,6.22-1.68,8.46a29.36,29.36,0,0,0-4.36.91l-.26-.35c1.77-8.25,3.49-16.54,5.18-25.48.39-2.12,0-2.25-1.73-2.34l-1,0,.26-1.29c4.06-.35,6.61-1.52,7.3-1.52.52,0,.6.35.34,1.52l-3.58,17h.09a26.67,26.67,0,0,1,7-6.43,7.48,7.48,0,0,1,3.29-1.08c1.12,0,2.72.64,1.46,6.09l-1.9,8.46c-.3,1.3-.17,1.69.13,1.69a7.48,7.48,0,0,0,2.68-1.73Z"/><path class="cls-2" d="M274.88,147.14a12.91,12.91,0,0,1,6.48-11.57,11.93,11.93,0,0,1,5.31-1.51c4,0,6.18,2.63,6.18,6.82a13.8,13.8,0,0,1-4.62,10.45,11.44,11.44,0,0,1-7.13,2.77C276.31,154.1,274.88,150.51,274.88,147.14ZM284,152c1.9-.78,4-5.36,4-11.28,0-3.37-1.25-4.88-2.89-4.88a3.34,3.34,0,0,0-1.26.26c-1.34.6-4.06,4.23-4.06,11.14,0,3.29,1.34,5,3,5A3.59,3.59,0,0,0,284,152Z"/><path class="cls-2" d="M295,147.14a12.91,12.91,0,0,1,6.48-11.57,11.93,11.93,0,0,1,5.31-1.51c4,0,6.18,2.63,6.18,6.82a13.8,13.8,0,0,1-4.62,10.45,11.44,11.44,0,0,1-7.13,2.77C296.42,154.1,295,150.51,295,147.14Zm9.07,4.89c1.9-.78,4-5.36,4-11.28,0-3.37-1.25-4.88-2.89-4.88a3.34,3.34,0,0,0-1.26.26c-1.34.6-4.06,4.23-4.06,11.14,0,3.29,1.34,5,3,5A3.59,3.59,0,0,0,304.06,152Z"/><path class="cls-2" d="M323.8,149.56c-2.63,2.9-5.74,4.54-7.21,4.54-1,0-1.86-.95-.91-5.49,1.38-6.74,2.77-13.43,4.15-20.13.43-2.16.26-2.46-1.6-2.55l-1.21-.08.26-1.21c3.89-.35,6.7-1.56,7.34-1.56s.57.44.35,1.52c-1.64,8-3.33,16.06-5,24.19-.26,1.21-.13,1.64.13,1.64a8.28,8.28,0,0,0,3-2Z"/><path class="cls-2" d="M356.12,146.54c-.56,1.47-2.12,5.57-2.77,7H333.44l.3-1.34c3.37-.26,3.72-.65,4.36-4l3.37-17.49c.65-3.2.39-3.54-3-3.85l.3-1.33h12.14l-.3,1.33c-3.41.26-3.67.65-4.28,3.85L343,148c-.3,1.6-.26,2.5.21,3.11s1.78.73,3.59.73c2.2,0,3.63-.3,4.71-1.34a18.53,18.53,0,0,0,3.15-4.49Z"/><path class="cls-2" d="M372.49,148.87c-3.85,4.06-7.13,5.23-9.81,5.23-2.33,0-5.09-1.3-5.09-6.44a14.25,14.25,0,0,1,5.09-11,12.24,12.24,0,0,1,6.66-2.63c2.76,0,4.23,1.68,4.23,3.62,0,4.37-7,6.57-11.23,7.69a12.14,12.14,0,0,0,0,1.26c0,2.24.78,4.36,3.16,4.36,1.73,0,4.14-1.25,6.22-3.24Zm-6.44-12.44c-1,.65-2.89,2.9-3.54,7.43,5.18-1.51,6.87-3.37,6.87-5.57,0-1.64-1-2.33-1.82-2.33A2.85,2.85,0,0,0,366.05,136.43Z"/><path class="cls-2" d="M394.3,149.22c-2.72,3.28-5.83,4.88-7.17,4.88-.95,0-1.81-.61-1.08-4.28l.61-2.93h-.09a27.34,27.34,0,0,1-4.71,5.09,7.88,7.88,0,0,1-4.45,2.12c-1.46,0-2.85-1.73-2.85-5.14a15.79,15.79,0,0,1,4.93-11.28,14.91,14.91,0,0,1,8.85-3.62,11.92,11.92,0,0,1,2.72.3,11.89,11.89,0,0,0,2.21.3l.21.17c-.86,3.33-2,8.43-2.89,13.65-.26,1.39-.17,1.77.09,1.77a9.25,9.25,0,0,0,3-2.16Zm-7.08-5.75c.56-2,1.3-5.44,1.51-6.78a6.42,6.42,0,0,0-2.63-.6,3.59,3.59,0,0,0-2.29.73c-2.81,2-4.32,7.3-4.32,11.19,0,1.81.39,2.59,1,2.59C382,150.6,386.23,145.55,387.22,143.47Z"/><path class="cls-2" d="M416.37,149.43c-2.63,3.2-5.74,4.67-7,4.67-1,0-1.81-.65-1.08-4.1l.61-3.11h-.09a29.61,29.61,0,0,1-5.22,5.31,7.29,7.29,0,0,1-4.19,1.9c-1.73,0-3.2-1.82-3.2-5.36a15.48,15.48,0,0,1,5-11.32c2.11-1.77,5.83-3.36,7.77-3.36a6.73,6.73,0,0,1,2.42.34l1.25-6.35c.39-1.9.13-2.12-1.81-2.12l-1,0,.21-1.29c4.11-.39,6.7-1.52,7.47-1.52.48,0,.57.35.31,1.39-1.95,8.42-3.54,16.19-5,24.19-.26,1.21-.22,1.64.13,1.64a7.07,7.07,0,0,0,2.85-2Zm-6.95-6,1.3-6.22a5.14,5.14,0,0,0-3.24-1.21,3.34,3.34,0,0,0-2.21.69c-2.72,2-4.23,7.73-4.23,11.15,0,1.85.56,2.76,1.25,2.76C404.19,150.6,408,145.94,409.42,143.43Z"/><path class="cls-2" d="M433.21,148.87c-3.85,4.06-7.13,5.23-9.81,5.23-2.33,0-5.09-1.3-5.09-6.44a14.25,14.25,0,0,1,5.09-11,12.24,12.24,0,0,1,6.66-2.63c2.76,0,4.23,1.68,4.23,3.62,0,4.37-7,6.57-11.23,7.69,0,.52,0,.91,0,1.26,0,2.24.77,4.36,3.15,4.36,1.73,0,4.14-1.25,6.22-3.24Zm-6.44-12.44c-1,.65-2.89,2.9-3.54,7.43,5.18-1.51,6.87-3.37,6.87-5.57,0-1.64-1-2.33-1.82-2.33A2.85,2.85,0,0,0,426.77,136.43Z"/><path class="cls-2" d="M436,138.46c2.42-2.55,5.22-4.4,6.69-4.4,1.26,0,1.52,1.59.78,5l-.39,2h.17c2.08-4,4.41-7,6.27-7a2.41,2.41,0,0,1,2,1.12,2.11,2.11,0,0,1-.13,2.37,5.69,5.69,0,0,1-1.39,1.6.75.75,0,0,1-1,0,2.51,2.51,0,0,0-1.65-.78c-.47,0-1,.26-1.9,1.51a21.57,21.57,0,0,0-2.67,5c-.56,2.5-1.21,5.79-1.64,8.33a21.19,21.19,0,0,0-4.28.87l-.3-.39c1.08-4.54,2.11-9.29,3-13.91.26-1.42.21-2-.09-2a7.67,7.67,0,0,0-2.81,1.77Z"/><path class="cls-2" d="M450,150.73a2.67,2.67,0,0,1,1.38-2.2c.65-.39,1-.35,1.34.08,1.42,1.86,3.24,3,4.66,3a2.09,2.09,0,0,0,2.29-1.95c0-.95-.56-1.77-2.68-3.37-1.9-1.42-4.14-3-4.14-5.53,0-1.46.56-3,2.54-4.57a8.91,8.91,0,0,1,5.15-2.16c2.16,0,3.75,1.29,3.75,2.67a2.66,2.66,0,0,1-1.34,2.16c-.51.35-.86.26-1.12-.13a5,5,0,0,0-3.71-2.29,1.79,1.79,0,0,0-1.91,1.86c0,1.3,1.34,2.42,3,3.54,2.5,1.73,4,3.2,4,5.36,0,3.67-4.75,6.87-8.38,6.87C452.52,154.1,450.06,152.59,450,150.73Z"/><path class="cls-2" d="M485.68,149.74c-2.77,2.89-5.49,4.36-7.05,4.36-1.21,0-1.81-1.17-1-4.62l2.12-9.42c.47-1.86.21-2.59-.35-2.59-1.6,0-5.48,3.8-7.6,7.26-.52,2.11-1.3,6.22-1.69,8.46a29.62,29.62,0,0,0-4.36.91l-.26-.35c1.77-8.25,3.5-16.54,5.19-25.48.38-2.12,0-2.25-1.73-2.34l-1,0,.26-1.29c4.06-.35,6.61-1.52,7.3-1.52.52,0,.61.35.35,1.52l-3.59,17h.09a26.67,26.67,0,0,1,7-6.43,7.41,7.41,0,0,1,3.28-1.08c1.12,0,2.72.64,1.47,6.09l-1.9,8.46c-.3,1.3-.17,1.69.13,1.69a7.65,7.65,0,0,0,2.68-1.73Z"/><path class="cls-2" d="M497.21,149.52c-2.46,2.76-5.75,4.58-7.13,4.58-1.12,0-1.94-.82-1-4.49l2.41-10.2c.22-1,.26-1.47,0-1.47a8.56,8.56,0,0,0-2.72,1.64l-.56-1.12c2.85-2.68,6-4.4,7.38-4.4,1.13,0,1.3,1.55.7,4l-2.64,10.67c-.26,1.17-.17,1.6.13,1.6a8.47,8.47,0,0,0,2.85-1.82Zm.78-21.6a3,3,0,0,1-2.94,3,2.1,2.1,0,0,1-2.16-2.37,3,3,0,0,1,2.89-3A2.14,2.14,0,0,1,498,127.92Z"/><path class="cls-2" d="M508.07,134.57a14.2,14.2,0,0,1,3.93-.51c4.54,0,6.36,2.24,6.36,6.3a13.69,13.69,0,0,1-3.63,8.73,17.17,17.17,0,0,1-8.3,5,6.81,6.81,0,0,1-2.33-.39L503,159.33c-.43,2.24-.13,2.63,2,2.89l1,.09-.22,1.34-11.14.51.3-1.29c2.55-.52,3.11-1,3.67-3.59q2.34-11.07,4.54-21.68a19.35,19.35,0,0,0-3.41,1.47l-.39-1.26a22.86,22.86,0,0,1,4.19-2.11l.47-1.9a17.34,17.34,0,0,1,4.37-2.94l.47.3Zm-3.28,16.16a3.32,3.32,0,0,0,2.33,1.38c2.64,0,6.35-6,6.35-11.4,0-3.63-1.77-4.54-3.8-4.54a8.1,8.1,0,0,0-2,.3Z"/><polygon class="cls-1" points="113.92 0.08 0 0.08 9.41 12 41.47 12 55.85 27.19 56.96 27.19 58.08 27.19 72.44 12 104.51 12 113.92 0.08"/><path class="cls-1" d="M92.38,102.49H21.54a3.88,3.88,0,1,1,0-7.75H92.38a3.88,3.88,0,1,1,0,7.75Z"/><path class="cls-1" d="M88.45,61.2c-3.72.87-17.25,5-22.91,19.34H87l1-6c0-.1,13.05-3.21,13.05-3.21C100.81,65.39,92.92,61.37,88.45,61.2Z"/><path class="cls-1" d="M25.44,61.2C21,61.39,13.11,65.4,12.9,71.29c0,0,13,3.11,13,3.21l1,6H48.36C42.71,66.27,29.08,62.08,25.44,61.2Z"/><path class="cls-1" d="M88.65,57l21-4.29a10.2,10.2,0,0,0-4.56-7.4,17.73,17.73,0,0,0,2.36-11.11C105.9,19.06,95,15.38,84.54,16.26c-8.76.72-14.66,5.58-19.56,11l-8,9.32-8-9.32C44,21.84,38.13,17,29.38,16.26c-10.49-.88-21.35,2.8-23,17.9A17.73,17.73,0,0,0,8.78,45.27a10.22,10.22,0,0,0-4.55,7.4l21,4.29c1.23.23,20.8,4.18,27.5,23.58h8.4C67.85,61.14,87.43,57.19,88.65,57ZM57,65.38l-4.21-8.85c-12.24-23.07-21.88-25.7-25.64-25.7-.08,0-4-.12-5.6,2.57-1.85,3,.32,5.93,1.54,6.23a3.12,3.12,0,0,0,4.17-2.78l5.94,2.27a11.15,11.15,0,0,1-3.66,5.36,9,9,0,0,1-7.77,1.57,8.86,8.86,0,0,1-6.13-4.8,12.79,12.79,0,0,1,0-10.76c1.89-4,6.3-6.13,11.17-6.25,3.3-.08,8.6,1,15,6.37C46.89,35.05,52,41.77,57,50.53,61.9,41.77,67,35.05,72.24,30.61c6.34-5.42,11.63-6.45,14.93-6.37,4.88.12,9.29,2.25,11.18,6.25a12.79,12.79,0,0,1,0,10.76,9.38,9.38,0,0,1-13.89,3.23,11.08,11.08,0,0,1-3.66-5.36l5.93-2.27a3.12,3.12,0,0,0,4.17,2.78c1.22-.3,3.38-3.21,1.53-6.23-1.63-2.69-5.51-2.57-5.57-2.57-3.79,0-13.43,2.63-25.65,25.7Z"/><path class="cls-1" d="M92.38,91.57H21.54a3.88,3.88,0,1,1,0-7.75H92.38a3.88,3.88,0,1,1,0,7.75Z"/></g></g></svg>