<svg xmlns="http://www.w3.org/2000/svg" xmlns:xlink="http://www.w3.org/1999/xlink" width="384.477" height="94.444" viewBox="0 0 384.477 94.444">
  <defs>
    <clipPath id="clip-path">
      <rect id="Rectangle_120" data-name="Rectangle 120" width="384.477" height="94.444" transform="translate(0 0)" fill="none"/>
    </clipPath>
  </defs>
  <g id="Group_63" data-name="Group 63" transform="translate(0 0)">
    <g id="Group_57" data-name="Group 57">
      <g id="Group_56" data-name="Group 56" clip-path="url(#clip-path)">
        <text id="Classical" transform="translate(127.556 53.99)" fill="#2494d4" font-size="63" font-family="HelveticaNeue-CondensedBold, Helvetica Neue" font-weight="700"><tspan x="0" y="0">Classical</tspan></text>
        <text id="Education_Symposium" data-name="Education Symposium" transform="translate(131.221 84.725)" fill="#fff" font-size="27" font-family="MinionPro-Semibold, Minion Pro" font-weight="600"><tspan x="0" y="0" letter-spacing="0.002em">Edu</tspan><tspan y="0" letter-spacing="0.001em">c</tspan><tspan y="0" letter-spacing="0.002em">ation Sy</tspan><tspan y="0" letter-spacing="0.001em">m</tspan><tspan y="0" letter-spacing="0.002em">posiu</tspan><tspan y="0">m</tspan></text>
      </g>
    </g>
    <rect id="Rectangle_121" data-name="Rectangle 121" width="9.27" height="78.369" transform="translate(0 7.89)" fill="#2494d4"/>
    <g id="Group_59" data-name="Group 59">
      <g id="Group_58" data-name="Group 58" clip-path="url(#clip-path)">
        <path id="Path_10567" data-name="Path 10567" d="M113.549,7.89H9.27V86.26H34.524a2.591,2.591,0,0,1,2-4.256H83.034a2.591,2.591,0,0,1,2,4.256h28.516Zm-82.7,57.921c.14-4.133,5.515-6.921,8.412-6.93a20.773,20.773,0,0,1,14.849,13.3H40.049L39.4,68.024c0-.069-8.554-2.213-8.554-2.213M83.034,79.7H36.523a2.6,2.6,0,1,1,0-5.208H83.034a2.6,2.6,0,1,1,0,5.208M80.146,68.024,79.5,72.179H65.445a20.776,20.776,0,0,1,14.85-13.3c2.9.013,8.266,2.8,8.419,6.93,0,0-8.568,2.144-8.568,2.213m.231-12.006,0,.03a23.282,23.282,0,0,0-7.77,3.1A23.725,23.725,0,0,0,62.521,72.179H57.033A23.726,23.726,0,0,0,46.95,59.148a23.3,23.3,0,0,0-7.769-3.1l0-.03-14.024-3a7.1,7.1,0,0,1,2.99-5.106,12.648,12.648,0,0,1-1.55-7.646c1.055-10.38,8.184-12.909,15.074-12.307,5.747.495,9.624,3.841,12.847,7.529l5.26,6.41,5.267-6.41c3.215-3.688,7.092-7.034,12.839-7.529,6.89-.6,14.027,1.927,15.075,12.307A12.653,12.653,0,0,1,91.4,47.917a7.078,7.078,0,0,1,2.991,5.106ZM91,25.035H69.941L60.513,35.479H59.05L49.609,25.035H28.559l-6.178-8.2h74.8Z" fill="#fff"/>
        <path id="Path_10568" data-name="Path 10568" d="M59.774,61.751l-2.765-6.09c-8.031-15.868-14.36-17.675-16.834-17.675-.051,0-2.6-.084-3.673,1.769-1.215,2.072.211,4.077,1.011,4.282a2.075,2.075,0,0,0,2.736-1.912l3.9,1.562a7.78,7.78,0,0,1-2.4,3.689,5.657,5.657,0,0,1-5.1,1.074,5.84,5.84,0,0,1-4.031-3.3,9.176,9.176,0,0,1-.013-7.4c1.235-2.75,4.131-4.214,7.332-4.3,2.168-.053,5.646.656,9.814,4.383,3.411,3.056,6.78,7.676,10.025,13.7,3.245-6.028,6.62-10.648,10.032-13.7,4.16-3.727,7.638-4.436,9.806-4.383,3.2.085,6.1,1.549,7.341,4.3a9.187,9.187,0,0,1-.021,7.4,5.833,5.833,0,0,1-4.024,3.3,5.646,5.646,0,0,1-5.1-1.074,7.714,7.714,0,0,1-2.4-3.689L79.3,42.125a2.078,2.078,0,0,0,2.743,1.912c.8-.2,2.219-2.21,1-4.282-1.069-1.853-3.623-1.769-3.659-1.769-2.488,0-8.817,1.807-16.841,17.675Z" fill="#fff"/>
      </g>
    </g>
  </g>
</svg>
