<svg xmlns="http://www.w3.org/2000/svg" xmlns:xlink="http://www.w3.org/1999/xlink" width="599.557" height="157" viewBox="0 0 599.557 157">
  <defs>
    <clipPath id="clip-path">
      <rect id="Rectangle_124" data-name="Rectangle 124" width="599.557" height="157" fill="none"/>
    </clipPath>
  </defs>
  <g id="Group_62" data-name="Group 62" transform="translate(0 0)">
    <g id="Group_61" data-name="Group 61" transform="translate(0 0)" clip-path="url(#clip-path)">
      <text id="Hexis" transform="translate(217.991 89.246)" fill="#002a6b" font-size="105" font-family="HelveticaNeue-CondensedBold, Helvetica Neue" font-weight="700"><tspan x="0" y="0">Hexis</tspan></text>
      <text id="Leadership_Program" data-name="Leadership Program" transform="translate(217.991 140.166)" fill="#fff" font-size="45" font-family="MinionPro-Semibold, Minion Pro" font-weight="600"><tspan x="0" y="0">Leadership Program</tspan></text>
      <path id="Path_10569" data-name="Path 10569" d="M77.872,63.225c-5.446,0-9.878,5.242-9.878,11.684v27.178h3.347V71.2h5.2v30.89h3.511l-.778-30.825,5.2-.129.781,30.954h3.716c-.342-7.333-.755-16.1-1.271-26.977-.322-6.774-4.548-11.885-9.831-11.885" transform="translate(46.019 42.792)" fill="#fff"/>
      <path id="Path_10570" data-name="Path 10570" d="M69.959,63.118H57.767A21.426,21.426,0,0,1,61.3,74.981v27.176h5.118V74.98a21.385,21.385,0,0,1,3.541-11.862" transform="translate(39.098 42.719)" fill="#fff"/>
      <path id="Path_10571" data-name="Path 10571" d="M53.447,63.225c-5.227,0-9.568,5.222-9.885,11.887-.518,10.9-.929,19.639-1.269,26.975h3.716l.78-30.949,5.2.129-.776,30.82h3.511V71.2h5.2v30.884h3.349V74.911c0-6.444-4.408-11.686-9.826-11.686" transform="translate(28.625 42.792)" fill="#fff"/>
      <path id="Path_10572" data-name="Path 10572" d="M184.127,8.03H9.27V139.442H56.137c.344-7.415.76-16.272,1.288-27.379A23.256,23.256,0,0,1,61.087,100.4H57.368a4.419,4.419,0,1,1,0-8.838H136a4.419,4.419,0,0,1,0,8.838h-3.716a23.326,23.326,0,0,1,3.652,11.659c.525,11.082.942,19.968,1.288,27.381h46.9ZM44.116,23.784H149.271a7.116,7.116,0,0,1,0,14.231H44.116a7.116,7.116,0,0,1,0-14.231M68.27,87.6c.614-.527,1.207-1.08,1.777-1.672,7.237-7.507,7.926-19.671,2.114-28.1,7.339,2,16.584,4.118,24.53,4.118s17.171-2.118,24.507-4.112c-5.807,8.429-5.114,20.588,2.119,28.093.568.592,1.164,1.145,1.776,1.672Zm85.689-6.545-.005-.005c-.2.21-.419.394-.629.594a19.87,19.87,0,0,1-12.984,4.873,17.66,17.66,0,0,1-11.962-5.466,15.438,15.438,0,0,1,0-20.974,11.089,11.089,0,0,1,7.886-3.474h0a9.054,9.054,0,0,1,6.659,2.827,7.856,7.856,0,0,1,0,11.072,5.256,5.256,0,0,1-7.485,0l-5.061,4.878a12.164,12.164,0,0,0,17.607,0,14.954,14.954,0,0,0,0-20.829,16.133,16.133,0,0,0-11.718-4.977h0a17.349,17.349,0,0,0-5.344.857l-.059-.235c-1.123.28-2.683.733-4.559,1.276-7.4,2.15-19.776,5.743-29.611,5.743S74.476,53.626,67.08,51.476c-1.876-.545-3.434-1-4.558-1.276l-.06.241a17.372,17.372,0,0,0-5.362-.864A16.139,16.139,0,0,0,45.38,54.555a14.957,14.957,0,0,0,0,20.829,12.166,12.166,0,0,0,17.608,0l-5.061-4.878a5.258,5.258,0,0,1-7.487,0,7.858,7.858,0,0,1,0-11.072A9.057,9.057,0,0,1,57.1,56.607a11.082,11.082,0,0,1,7.886,3.474,15.431,15.431,0,0,1,0,20.974A17.649,17.649,0,0,1,53.035,86.52a19.873,19.873,0,0,1-13.088-4.96l-.032-.03a22.17,22.17,0,0,1-7.467-16.743c0-12,9.222-21.733,20.6-21.733h87.29c11.376,0,20.6,9.731,20.6,21.733a22.19,22.19,0,0,1-6.977,16.273" transform="translate(6.274 5.435)" fill="#fff"/>
      <rect id="Rectangle_123" data-name="Rectangle 123" width="15.544" height="131.41" transform="translate(0 13.466)" fill="#002a6b"/>
    </g>
  </g>
</svg>
