<svg id="ICE_LOGO" data-name="ICE LOGO" xmlns="http://www.w3.org/2000/svg" xmlns:xlink="http://www.w3.org/1999/xlink" width="250" height="58.367" viewBox="0 0 250 58.367">
  <defs>
    <clipPath id="clip-path">
      <rect id="Rectangle_8" data-name="Rectangle 8" width="250" height="58.367" fill="none"/>
    </clipPath>
  </defs>
  <g id="Group_1" data-name="Group 1" clip-path="url(#clip-path)">
    <text id="I" transform="translate(40.881 19.653)" fill="#002a6b" font-size="23" font-family="MinionPro-Semibold, Minion Pro" font-weight="600"><tspan x="0" y="0">I</tspan></text>
    <text id="n" transform="translate(49.94 19.653)" fill="#002a6b" font-size="24" font-family="MinionPro-Semibold, Minion Pro" font-weight="600"><tspan x="0" y="0">n</tspan></text>
    <text id="s" transform="translate(63.944 20.653)" fill="#002a6b" font-size="25" font-family="MinionPro-Semibold, Minion Pro" font-weight="600"><tspan x="0" y="0">s</tspan></text>
    <text id="t" transform="translate(73.132 19.653)" fill="#002a6b" font-size="23" font-family="MinionPro-Semibold, Minion Pro" font-weight="600"><tspan x="0" y="0">t</tspan></text>
    <text id="i-2" data-name="i" transform="translate(81.488 18.653)" fill="#002a6b" font-size="22" font-family="MinionPro-Semibold, Minion Pro" font-weight="600"><tspan x="0" y="0">i</tspan></text>
    <text id="t-2" data-name="t" transform="translate(87.969 19.653)" fill="#002a6b" font-size="23" font-family="MinionPro-Semibold, Minion Pro" font-weight="600"><tspan x="0" y="0">t</tspan></text>
    <text id="u" transform="translate(96.194 18.653)" fill="#002a6b" font-size="22" font-family="MinionPro-Semibold, Minion Pro" font-weight="600"><tspan x="0" y="0">u</tspan></text>
    <text id="te_" data-name="te " transform="translate(109.521 20.651)" fill="#002a6b" font-size="25" font-family="MinionPro-Semibold, Minion Pro" font-weight="600"><tspan x="0" y="0">te </tspan></text>
    <text id="for" transform="translate(134.426 19.653)" fill="#002a6b" font-size="24" font-family="MinionPro-SemiboldIt, Minion Pro" font-weight="600" font-style="italic"><tspan x="0" y="0">for</tspan></text>
    <text id="Classical_Education" data-name="Classical Education" transform="translate(40.881 47.166)" fill="#002a6b" font-size="24" font-family="MinionPro-Semibold, Minion Pro" font-weight="600"><tspan x="0" y="0">Classical Education</tspan></text>
    <path id="Path_1" data-name="Path 1" d="M18.324,21.151l2.323-2.7a8.477,8.477,0,0,1,5.662-3.17c3.038-.253,6.186.811,6.648,5.181a5.134,5.134,0,0,1-.684,3.218,2.95,2.95,0,0,1,1.319,2.15l-6.181,1.261L27.222,28.3c1.235-.093,3.8,1.107,3.866,2.917,0,0-3.779.9-3.779.931L27.024,33.9H9.626L9.34,32.147c0-.029-3.772-.931-3.772-.931.064-1.81,2.628-3.01,3.859-2.917l-.186-1.206L3.057,25.832a2.961,2.961,0,0,1,1.318-2.15,5.139,5.139,0,0,1-.684-3.218c.466-4.37,3.61-5.434,6.648-5.181A8.493,8.493,0,0,1,16,18.453Zm0,8.354,1.223-2.564c3.539-6.68,6.33-7.44,7.427-7.44a1.951,1.951,0,0,1,1.613.745,1.252,1.252,0,0,1-.443,1.8.9.9,0,0,1-1.209-.8l-1.717.657a3.242,3.242,0,0,0,1.059,1.553,2.578,2.578,0,0,0,2.249.453,2.549,2.549,0,0,0,1.774-1.39A3.7,3.7,0,0,0,30.31,19.4a3.528,3.528,0,0,0-3.237-1.81,6.476,6.476,0,0,0-4.325,1.845,21.451,21.451,0,0,0-4.424,5.769A21.423,21.423,0,0,0,13.9,19.438a6.486,6.486,0,0,0-4.328-1.845A3.52,3.52,0,0,0,6.342,19.4a3.7,3.7,0,0,0,.006,3.115,2.555,2.555,0,0,0,1.778,1.39,2.583,2.583,0,0,0,2.249-.453A3.255,3.255,0,0,0,11.433,21.9l-1.72-.657a.9.9,0,0,1-1.206.8,1.253,1.253,0,0,1-.446-1.8,1.955,1.955,0,0,1,1.62-.745c1.09,0,3.882.76,7.424,7.44Z" transform="translate(-1.833 -9.142)" fill="#7d694f"/>
    <path id="Path_2" data-name="Path 2" d="M32.985,3.635H0L2.723,7.088h9.284l4.164,4.4h.645l4.158-4.4H30.26Z" transform="translate(0 -2.179)" fill="#7d694f"/>
    <path id="Path_3" data-name="Path 3" d="M44.578,52.983l-1.159-.275a10.459,10.459,0,0,1,8.318-7.937l.156,1.181a9.1,9.1,0,0,0-7.314,7.03" transform="translate(-26.032 -26.842)" fill="#fff"/>
    <path id="Path_4" data-name="Path 4" d="M25.1,52.983a9.1,9.1,0,0,0-7.316-7.03l.157-1.181a10.458,10.458,0,0,1,8.318,7.936Z" transform="translate(-10.661 -26.843)" fill="#fff"/>
    <rect id="Rectangle_1" data-name="Rectangle 1" width="16.163" height="1.321" transform="translate(8.894 49.234) rotate(-88.472)" fill="#7d694f"/>
    <rect id="Rectangle_2" data-name="Rectangle 2" width="1.321" height="16.06" transform="translate(11.395 33.095)" fill="#7d694f"/>
    <rect id="Rectangle_3" data-name="Rectangle 3" width="1.321" height="16.061" transform="translate(20.267 33.094)" fill="#7d694f"/>
    <rect id="Rectangle_4" data-name="Rectangle 4" width="1.321" height="16.165" transform="matrix(1, -0.027, 0.027, 1, 22.337, 33.111)" fill="#7d694f"/>
    <path id="Path_5" data-name="Path 5" d="M13.893,66.426H34.4a1.122,1.122,0,1,0,0-2.245H13.893a1.122,1.122,0,1,0,0,2.245" transform="translate(-7.657 -38.479)" fill="#7d694f"/>
    <path id="Path_6" data-name="Path 6" d="M34.4,72.078H13.893a1.122,1.122,0,1,0,0,2.245h.981a5.549,5.549,0,0,0-.936,2.852l-.775,16.2,2.156.1.775-16.2A2.847,2.847,0,0,1,18.7,74.366a2.739,2.739,0,0,1,2.592,2.86v16.2h2.158v-16.2a5.176,5.176,0,0,0-.883-2.9h3.162a5.168,5.168,0,0,0-.885,2.9v16.2H27v-16.2a2.745,2.745,0,0,1,2.607-2.86A2.808,2.808,0,0,1,32.2,77.277l.775,16.2,2.156-.1-.775-16.2a5.626,5.626,0,0,0-.909-2.851H34.4a1.122,1.122,0,1,0,0-2.245" transform="translate(-7.657 -43.214)" fill="#7d694f"/>
    <rect id="Rectangle_5" data-name="Rectangle 5" width="4.334" height="0.876" transform="translate(8.611 49.155)" fill="#fff"/>
    <rect id="Rectangle_6" data-name="Rectangle 6" width="4.334" height="0.876" transform="translate(19.993 49.155)" fill="#fff"/>
    <rect id="Rectangle_7" data-name="Rectangle 7" width="22.346" height="0.935" transform="translate(5.302 50.119)" fill="#fff"/>
  </g>
</svg>
