<?xml version="1.0" encoding="UTF-8"?>
<svg width="677px" height="132px" viewBox="0 0 677 132" version="1.1" xmlns="http://www.w3.org/2000/svg" xmlns:xlink="http://www.w3.org/1999/xlink">
    <title>Institute for Classical Education</title>
    <g id="Page-1" stroke="none" stroke-width="1" fill="none" fill-rule="evenodd">
        <g id="ice_logo" fill-rule="nonzero">
            <path d="M115.31,58.09 L115.31,55.81 C120.78,55.31 121.42,54.88 121.42,48.81 L121.42,21.16 C121.42,15.11 120.78,14.61 115.31,14.16 L115.31,11.84 L135.73,11.84 L135.73,14.19 C130.25,14.61 129.73,15.11 129.73,21.19 L129.73,48.84 C129.73,54.84 130.3,55.31 135.73,55.84 L135.73,58.12 L115.31,58.09 Z" id="Path" fill="#14377D"></path>
            <path d="M160.08,58.09 L160.08,56 C163.5,55.57 163.92,55.22 163.92,50.17 L163.92,38.17 C163.92,33.17 161.72,30.99 158.45,30.99 C156.138185,31.1538977 153.952867,32.1071057 152.26,33.69 L152.26,50.69 C152.26,55.24 152.68,55.52 156.03,55.95 L156.03,58.09 L139.52,58.09 L139.52,56 C144.07,55.43 144.43,55.22 144.43,50.52 L144.43,35.74 C144.43,31.33 144.07,31.12 140.43,30.41 L140.43,28.49 C144.446793,27.9271166 148.403407,26.9965423 152.25,25.71 L152.25,31.12 C153.67,30.12 155.09,29.06 156.8,27.99 C158.43253,26.7214876 160.423773,26.0005806 162.49,25.93 C168.18,25.93 171.67,30.05 171.67,37.1 L171.67,50.62 C171.67,55.24 172.1,55.45 176.01,55.95 L176.01,58.09 L160.08,58.09 Z" id="Path" fill="#14377D"></path>
            <path d="M197.69,35.67 C195.98,31.33 193.63,28.49 190.21,28.49 C189.105352,28.5020038 188.053547,28.9647272 187.298302,29.7709508 C186.543058,30.5771744 186.149926,31.6569216 186.21,32.76 C186.21,35.25 188.27,36.95 191.76,38.45 C197.38,40.87 201.15,43.36 201.15,48.69 C201.15,55.52 194.68,58.94 188.77,58.94 C185.07,58.94 181.44,57.59 180.09,56.52 C179.59,55.45 178.95,50.47 178.95,47.34 L180.95,47.13 C182.44,51.68 185.71,56.31 189.95,56.31 C191.114988,56.3602109 192.248621,55.9249904 193.080703,55.1080713 C193.912786,54.2911522 194.368779,53.1657142 194.34,52 C194.34,49.58 192.92,47.87 188.86,45.88 C185.23,44.17 179.86,41.54 179.86,35.63 C179.86,30.3 184.27,25.89 191.45,25.89 C193.716083,25.8255817 195.97071,26.2342754 198.07,27.09 C198.871435,29.7018974 199.443602,32.3787011 199.78,35.09 L197.69,35.67 Z" id="Path" fill="#14377D"></path>
            <path d="M218.62,58.09 C217.708708,58.5542564 216.718089,58.8426216 215.7,58.94 C210.58,58.94 207.7,56.31 207.7,50.12 L207.7,30 L203,30 L202.64,29.15 L204.64,26.8 L207.64,26.8 L207.64,21.6 L214.47,16.34 L215.4,16.7 L215.4,26.8 L222.8,26.8 C223.184501,27.2748397 223.356301,27.8871581 223.274931,28.4927094 C223.19356,29.0982607 222.866211,29.6435059 222.37,30 L215.37,30 L215.37,47.77 C215.37,53.39 217.93,54.17 219.49,54.17 C220.823579,54.1361746 222.135202,53.8227479 223.34,53.25 L224.05,55.45 L218.62,58.09 Z" id="Path" fill="#14377D"></path>
            <path d="M226.69,58.09 L226.69,56 C230.96,55.5 231.38,55.22 231.38,50.24 L231.38,35.89 C231.38,31.33 230.96,31.05 227.26,30.48 L227.26,28.48 C231.335599,27.987995 235.354218,27.1038988 239.26,25.84 L239.26,50.19 C239.26,55.03 239.62,55.45 244.03,55.95 L244.03,58.09 L226.69,58.09 Z M230.25,16.32 C230.266362,13.8139132 232.293913,11.7863624 234.8,11.77 C236.011659,11.7536974 237.178466,12.2278342 238.035316,13.0846842 C238.892166,13.9415342 239.366303,15.1083408 239.35,16.32 C239.334228,17.5276363 238.837926,18.6792168 237.970889,19.5199795 C237.103853,20.3607422 235.93755,20.8213847 234.73,20.8 C232.282361,20.7369396 230.31306,18.7676394 230.25,16.32 Z" id="Shape" fill="#14377D"></path>
            <path d="M259.56,58.09 C258.648708,58.5542564 257.658089,58.8426216 256.64,58.94 C251.52,58.94 248.64,56.31 248.64,50.12 L248.64,30 L244,30 L243.64,29.15 L245.64,26.8 L248.64,26.8 L248.64,21.6 L255.47,16.34 L256.4,16.7 L256.4,26.8 L263.8,26.8 C264.184501,27.2748397 264.356301,27.8871581 264.274931,28.4927094 C264.19356,29.0982607 263.866211,29.6435059 263.37,30 L256.37,30 L256.37,47.77 C256.37,53.39 258.93,54.17 260.49,54.17 C261.823579,54.1361746 263.135202,53.8227479 264.34,53.25 L265.05,55.45 L259.56,58.09 Z" id="Path" fill="#14377D"></path>
            <path d="M303.07,56.38 C299.006373,57.0308726 294.977973,57.8852807 291,58.94 L290.5,58.44 L290.5,53.89 C289.161988,55.0167335 287.752368,56.0555769 286.28,57 C284.546695,58.2277671 282.492689,58.9228625 280.37,59 C274.82,59 271.19,55.51 271.19,48.68 L271.19,34.25 C271.19,30.62 270.98,30.34 267.14,29.48 L267.14,27.48 C271.19049,27.3176475 275.227674,26.9135952 279.23,26.27 C279.09,28.98 279.02,32.46 279.02,36.87 L279.02,46.87 C279.02,52.13 281.72,53.77 284.43,53.77 C286.686138,53.7943038 288.85402,52.8946327 290.43,51.28 L290.43,34.25 C290.43,30.48 290.15,30.19 285.53,29.48 L285.53,27.48 C289.794632,27.3459605 294.046485,26.9418174 298.26,26.27 L298.26,49.62 C298.26,53.32 298.69,53.89 301.32,54.17 L303.03,54.31 L303.07,56.38 Z" id="Path" fill="#14377D"></path>
            <path d="M318.92,58.09 C318.008708,58.5542564 317.018089,58.8426216 316,58.94 C310.88,58.94 308,56.31 308,50.12 L308,30 L303.38,30 L303.02,29.15 L305.02,26.8 L308.02,26.8 L308.02,21.6 L314.85,16.34 L315.78,16.7 L315.78,26.8 L323.18,26.8 C323.564501,27.2748397 323.736301,27.8871581 323.654931,28.4927094 C323.57356,29.0982607 323.246211,29.6435059 322.75,30 L315.75,30 L315.75,47.77 C315.75,53.39 318.31,54.17 319.88,54.17 C321.210231,54.1350779 322.518365,53.8216706 323.72,53.25 L324.43,55.45 L318.92,58.09 Z" id="Path" fill="#14377D"></path>
            <path d="M352.27,51.47 C347.93,57.52 342.59,58.94 339.89,58.94 C330.71,58.94 325.52,51.94 325.52,43.71 C325.464655,38.9885496 327.280204,34.4370932 330.57,31.05 C333.63,27.85 337.57,25.93 341.31,25.93 C347.448478,26.0304832 352.411171,30.9622695 352.55,37.1 C352.55,38.52 352.13,39.37 350.63,39.59 C349.35,39.8 340.63,40.44 333.13,40.72 C333.34,49.12 338.04,53.03 343.13,53.03 C346.119772,53.0184489 348.988157,51.8459966 351.13,49.76 L352.27,51.47 Z M333.48,37.52 C336.76,37.52 339.89,37.45 343.16,37.31 C344.3,37.31 344.73,37.1 344.8,35.96 C344.8,32.26 342.88,28.7 339.75,28.7 C336.83,28.7 334.13,31.9 333.48,37.52 Z" id="Shape" fill="#14377D"></path>
            <path d="M379.31,27.21 C380.45,21.73 382.22,16.75 385.43,13.26 C388.84,9.56 393.04,7.57 395.89,7.57 C398.52,7.57 400.37,9.35 400.3,10.7 C400.080137,11.9490836 399.39381,13.0679383 398.38,13.83 C397.845628,14.3101209 397.026563,14.2791292 396.53,13.76 C394.96,12.05 393.47,11.05 392.04,11.05 C389.55,11.05 387.56,13.9 385.43,27.21 L393.54,27.21 L392,29.55 L384.82,30.19 C383.54,37.81 382.75,42.5 381.12,50.4 C378.56,62.57 375.78,67.76 371.73,71.89 C368.59,75.09 365.73,76.23 363.73,76.23 C361.59,76.23 359.17,74.74 359.17,73.1 C359.17,72.03 360.17,70.75 361.24,69.9 C361.408211,69.6774556 361.671036,69.5466563 361.95,69.5466563 C362.228964,69.5466563 362.491789,69.6774556 362.66,69.9 C363.986249,71.0175484 365.630617,71.68929 367.36,71.82 C368.510471,71.7996859 369.586009,71.2452851 370.27,70.32 C371.05,69.26 372.62,66.32 374.9,53.03 C376.53,43.21 377.53,37.1 378.67,30.12 L372.9,30.12 L372.69,29.34 L374.9,27.21 L379.31,27.21 Z" id="Path" fill="#14377D"></path>
            <path d="M389.94,47.77 C389.94,38.52 394.94,31.48 400.68,28.42 C403.125982,27.0213198 405.866159,26.2163928 408.68,26.07 C414.8,26.07 418.29,30.19 418.29,37.24 C418.29,43.36 415.73,50.24 410.67,54.46 C407.574446,57.1963454 403.628452,58.7789821 399.5,58.94 C392.5,58.94 389.94,53.46 389.94,47.77 Z M404.38,55.6 C408.01,54.1 411.85,46.6 411.78,37.24 C411.78,31.55 409.43,28.84 406.3,28.84 C405.415888,28.8461957 404.54322,29.0405006 403.74,29.41 C401.18,30.62 396.48,36.46 396.48,47.56 C396.48,52.82 398.69,56.02 402.18,56.02 C402.934134,56.0295737 403.682431,55.886717 404.38,55.6 L404.38,55.6 Z" id="Shape" fill="#14377D"></path>
            <path d="M422.06,33.11 C425.76,29.06 430.25,26.11 432.31,26.11 C434.37,26.11 434.37,29.24 433.31,34.36 L432.59,37.85 L432.81,37.85 C436.36,31.02 440.49,26.11 443.34,26.11 C444.636386,26.1322093 445.825425,26.8349959 446.47,27.96 C447.095151,28.9679951 447.067714,30.2496809 446.4,31.23 C445.888786,32.0937046 445.208544,32.8453721 444.4,33.44 C443.76,33.93 443.19,33.93 442.77,33.51 C442.162336,32.7455426 441.255306,32.279278 440.28,32.23 C439.5,32.23 438.43,32.94 436.86,35.14 C434.921927,37.8291494 433.291728,40.7272815 432,43.78 C430.94,48.34 430,53.03 429.16,57.59 C427.279228,57.9024614 425.424161,58.3536939 423.61,58.94 L423.04,58.37 C424.89,50.83 426.81,42.29 428.16,34.68 C428.59,32.33 428.59,31.55 428.02,31.55 C427.45,31.55 425.02,32.97 423.11,34.82 L422.06,33.11 Z" id="Path" fill="#14377D"></path>
            <path d="M153.8,116.44 C152.719888,120.272018 151.383545,124.02714 149.8,127.68 C145.46113,128.727937 141.029897,129.347573 136.57,129.53 C118.14,129.53 110.24,117.22 110.24,105.98 C110.24,91.18 121.56,81.15 138.24,81.15 C142.555036,81.2748936 146.83928,81.9195447 151,83.07 C151.57,86.98 152.07,90.19 152.57,94.38 L150.08,94.88 C147.94,86.77 142.89,84.07 136.63,84.07 C125.75,84.07 119.84,93.89 119.84,104.56 C119.84,117.65 127.1,126.47 137.2,126.47 C143.68,126.47 147.8,122.63 151.43,115.47 L153.8,116.44 Z" id="Path" fill="#14377D"></path>
            <path d="M155,128.47 L155,126.33 C159.34,125.76 159.77,125.41 159.77,120.78 L159.77,87.84 C159.77,83.36 159.41,83.14 155.29,82.71 L155.29,80.71 C159.452858,80.207669 163.569169,79.3750438 167.6,78.22 L167.6,120.77 C167.6,125.54 168.09,125.89 172.51,126.32 L172.51,128.46 L155,128.47 Z" id="Path" fill="#14377D"></path>
            <path d="M197.26,129.32 C195.802553,129.323599 194.388942,128.821767 193.26,127.9 C192.456163,127.100757 191.85007,126.124846 191.49,125.05 C188.71,126.9 185.37,129.32 183.73,129.32 C181.306326,129.365476 178.965094,128.439928 177.227678,126.749469 C175.490263,125.059011 174.500931,122.74401 174.48,120.32 C174.48,116.7 176.26,114.77 180.03,113.42 C184.23,111.93 189.64,110.15 191.27,108.73 L191.27,107 C191.27,102.3 189.27,99.67 186.27,99.67 C185.237118,99.6425509 184.255672,100.120213 183.64,100.95 C182.61754,102.398807 181.915302,104.048725 181.58,105.79 C181.403237,107.117129 180.201317,108.061811 178.87,107.92 C177.24,107.92 174.96,106.36 174.96,104.51 C174.96,103.37 175.81,102.44 177.38,101.38 C180.822364,99.0075205 184.684191,97.31076 188.76,96.38 C191.106516,96.288053 193.415083,96.9929588 195.31,98.38 C198.15,100.58 198.87,103.64 198.87,107.49 L198.87,119.79 C198.87,123.07 200,123.99 201.21,123.99 C202.05524,123.966229 202.883513,123.747181 203.63,123.35 L204.42,125.49 L197.26,129.32 Z M191.26,111.39 C189.84,112.17 187.92,113.17 186.42,113.95 C184.01,115.09 182.72,116.44 182.72,118.95 C182.72,122.79 185.43,124.36 187.28,124.36 C188.755736,124.260861 190.159412,123.685354 191.28,122.72 L191.26,111.39 Z" id="Shape" fill="#14377D"></path>
            <path d="M225.64,106.05 C223.93,101.71 221.64,98.87 218.17,98.87 C217.065352,98.8820038 216.013547,99.3447272 215.258302,100.150951 C214.503058,100.957174 214.109926,102.036922 214.17,103.14 C214.17,105.63 216.23,107.33 219.72,108.83 C225.34,111.25 229.11,113.74 229.11,119.07 C229.11,125.9 222.63,129.32 216.73,129.32 C213.03,129.32 209.4,127.97 208.05,126.9 C207.55,125.83 206.91,120.85 206.91,117.72 L208.91,117.51 C210.41,122.06 213.68,126.69 217.91,126.69 C219.059401,126.725634 220.173353,126.289547 220.993076,125.483045 C221.812799,124.676543 222.266941,123.569828 222.25,122.42 C222.25,120 220.83,118.29 216.77,116.3 C213.14,114.59 207.77,111.96 207.77,106.05 C207.77,100.72 212.18,96.31 219.37,96.31 C221.635928,96.2476286 223.890137,96.6562466 225.99,97.51 C226.786618,100.123146 227.358695,102.799531 227.7,105.51 L225.64,106.05 Z" id="Path" fill="#14377D"></path>
            <path d="M251.8,106.05 C250.09,101.71 247.74,98.87 244.33,98.87 C243.225352,98.8820038 242.173547,99.3447272 241.418302,100.150951 C240.663058,100.957174 240.269926,102.036922 240.33,103.14 C240.33,105.63 242.4,107.33 245.88,108.83 C251.5,111.25 255.27,113.74 255.27,119.07 C255.27,125.9 248.8,129.32 242.89,129.32 C239.826027,129.350449 236.816246,128.511316 234.21,126.9 C233.72,125.83 233.08,120.85 233.08,117.72 L235.08,117.51 C236.57,122.06 239.84,126.69 244.08,126.69 C245.229401,126.725634 246.343353,126.289547 247.163076,125.483045 C247.982799,124.676543 248.436941,123.569828 248.42,122.42 C248.42,120 247,118.29 242.95,116.3 C239.32,114.59 233.95,111.96 233.95,106.05 C233.95,100.72 238.36,96.31 245.55,96.31 C247.812777,96.2463898 250.063976,96.6550794 252.16,97.51 C252.961435,100.121897 253.533602,102.798701 253.87,105.51 L251.8,106.05 Z" id="Path" fill="#14377D"></path>
            <path d="M257.63,128.47 L257.63,126.33 C261.9,125.83 262.33,125.55 262.33,120.57 L262.33,106.27 C262.33,101.71 261.9,101.43 258.2,100.86 L258.2,98.86 C262.275672,98.3684253 266.294332,97.48432 270.2,96.22 L270.2,120.56 C270.2,125.4 270.55,125.82 274.96,126.32 L274.96,128.46 L257.63,128.47 Z M261.19,86.7 C261.206362,84.1939132 263.233913,82.1663624 265.74,82.15 C266.953381,82.1309705 268.122794,82.6039026 268.981831,83.4610553 C269.840867,84.318208 270.316366,85.4865806 270.3,86.7 C270.284255,87.9094024 269.786577,89.0625276 268.917363,89.9035807 C268.04815,90.7446338 266.879265,91.2040795 265.67,91.18 C263.222361,91.1169396 261.25306,89.1476394 261.19,86.7 L261.19,86.7 Z" id="Shape" fill="#14377D"></path>
            <path d="M303.15,121.78 C299.95,126.19 295.25,129.32 290.98,129.32 C281.52,129.32 275.98,121.99 275.98,114.32 C276.040481,108.855863 278.708768,103.749698 283.16,100.58 C286.495804,97.9994854 290.54694,96.5117408 294.76,96.32 C296.958695,96.2397291 299.126116,96.8594925 300.95,98.09 C301.768818,98.6188711 302.253658,99.535522 302.23,100.51 C302.16,102.36 300.45,104.14 299.39,104.14 C298.80969,104.077926 298.274093,103.799415 297.89,103.36 C295.26,101.01 292.89,99.94 290.71,99.94 C287.22,99.94 283.71,103.07 283.71,110.69 C283.71,120.29 290.47,123.42 293.89,123.42 C296.89,123.42 299.01,122.64 301.89,120.15 L303.15,121.78 Z" id="Path" fill="#14377D"></path>
            <path d="M328.6,129.32 C327.142553,129.323599 325.728942,128.821767 324.6,127.9 C323.796163,127.100757 323.19007,126.124846 322.83,125.05 C320.05,126.9 316.71,129.32 315.07,129.32 C312.646326,129.365476 310.305094,128.439928 308.567678,126.749469 C306.830263,125.059011 305.840931,122.74401 305.82,120.32 C305.82,116.7 307.6,114.77 311.37,113.42 C315.57,111.93 320.98,110.15 322.61,108.73 L322.61,107 C322.61,102.3 320.61,99.67 317.61,99.67 C316.577118,99.6425509 315.595672,100.120213 314.98,100.95 C313.95754,102.398807 313.255302,104.048725 312.92,105.79 C312.743237,107.117129 311.541317,108.061811 310.21,107.92 C308.58,107.92 306.3,106.36 306.3,104.51 C306.3,103.37 307.15,102.44 308.72,101.38 C312.162364,99.0075205 316.024191,97.31076 320.1,96.38 C322.446516,96.288053 324.755083,96.9929588 326.65,98.38 C329.49,100.58 330.21,103.64 330.21,107.49 L330.21,119.79 C330.21,123.07 331.34,123.99 332.55,123.99 C333.39524,123.966229 334.223513,123.747181 334.97,123.35 L335.76,125.49 L328.6,129.32 Z M322.6,111.39 C321.18,112.17 319.26,113.17 317.76,113.95 C315.34,115.09 314.06,116.44 314.06,118.95 C314.06,122.79 316.77,124.36 318.62,124.36 C320.095736,124.260861 321.499412,123.685354 322.62,122.72 L322.6,111.39 Z" id="Shape" fill="#14377D"></path>
            <path d="M337.64,128.47 L337.64,126.33 C341.98,125.76 342.41,125.41 342.41,120.78 L342.41,87.84 C342.41,83.36 342.05,83.14 337.93,82.71 L337.93,80.71 C342.092858,80.207669 346.209169,79.3750438 350.24,78.22 L350.24,120.77 C350.24,125.54 350.73,125.89 355.15,126.32 L355.15,128.46 L337.64,128.47 Z" id="Path" fill="#14377D"></path>
            <path d="M413.42,116.87 C412.99,119.71 411.57,126.33 410.93,128.47 L375.35,128.47 L375.35,126.19 C381.54,125.69 382.18,125.19 382.18,119.19 L382.18,91.54 C382.18,85.28 381.54,84.99 376.35,84.54 L376.35,82.22 L409.15,82.22 C409.22,83.64 409.58,88.62 409.86,92.75 L407.44,93.1 C407.030244,90.8956634 406.131542,88.8112222 404.81,87 C403.67,85.65 401.75,85.15 397.34,85.15 L393.21,85.15 C390.72,85.15 390.51,85.3 390.51,87.57 L390.51,103 L396,103 C402.12,103 402.83,102.58 403.75,97.67 L406.17,97.67 L406.17,111.76 L403.75,111.76 C402.83,106.63 402.12,106.35 396,106.35 L390.52,106.35 L390.52,119 C390.52,122.42 390.87,124 392.23,124.84 C393.59,125.68 396,125.62 398.91,125.62 C403.25,125.62 405.6,125.12 407.24,123.27 C408.890086,121.222159 410.187817,118.913954 411.08,116.44 L413.42,116.87 Z" id="Path" fill="#14377D"></path>
            <path d="M452.15,126.62 C447.795103,127.229367 443.490379,128.15515 439.27,129.39 L439.27,125.05 L434.93,127.75 C433.670666,128.641953 432.197182,129.183725 430.66,129.32 C424.66,129.32 416.57,124.32 416.57,113.88 C416.57,104.13 425.11,96.31 435.64,96.31 C436.862767,96.3582427 438.078205,96.5223102 439.27,96.8 L439.27,87.7 C439.27,83.57 438.84,83.28 434.27,82.79 L434.27,80.72 C438.621421,80.2253436 442.927753,79.3928306 447.15,78.23 L447.15,119.79 C447.15,123.7 447.57,123.98 450.42,124.34 L452.2,124.55 L452.15,126.62 Z M439.27,102.85 C438.129287,100.582487 435.808275,99.1511959 433.27,99.15 C431,99.15 425.38,101.36 425.38,111.96 C425.38,120.64 430.5,124.27 434.27,124.27 C436.06283,124.233651 437.803931,123.66257 439.27,122.63 L439.27,102.85 Z" id="Shape" fill="#14377D"></path>
            <path d="M488.45,126.76 C484.376289,127.409886 480.337852,128.264299 476.35,129.32 L475.86,128.82 L475.86,124.27 C474.524206,125.375331 473.121546,126.397269 471.66,127.33 C469.928036,128.560395 467.87322,129.255765 465.75,129.33 C460.2,129.33 456.57,125.84 456.57,119.01 L456.57,104.63 C456.57,101 456.36,100.72 452.52,99.86 L452.52,97.86 C456.57049,97.6976475 460.607674,97.2935952 464.61,96.65 C464.47,99.36 464.4,102.84 464.4,107.25 L464.4,117.25 C464.4,122.52 467.1,124.16 469.81,124.16 C472.082973,124.195698 474.27065,123.295315 475.86,121.67 L475.86,104.63 C475.86,100.86 475.57,100.57 470.95,99.86 L470.95,97.86 C475.214632,97.7259605 479.466485,97.3218174 483.68,96.65 L483.68,120 C483.68,123.7 484.11,124.27 486.74,124.55 L488.45,124.69 L488.45,126.76 Z" id="Path" fill="#14377D"></path>
            <path d="M517,121.78 C513.8,126.19 509.1,129.32 504.83,129.32 C495.37,129.32 489.83,121.99 489.83,114.32 C489.881734,108.853316 492.547196,103.741726 497,100.57 C500.335165,97.9883302 504.386679,96.5004466 508.6,96.31 C510.798695,96.2297291 512.966116,96.8494925 514.79,98.08 C515.605869,98.6115686 516.089769,99.5264413 516.07,100.5 C516,102.35 514.29,104.13 513.22,104.13 C512.642675,104.067421 512.11039,103.788776 511.73,103.35 C509.09,101 506.73,99.93 504.54,99.93 C501.05,99.93 497.54,103.06 497.54,110.68 C497.54,120.28 504.3,123.41 507.71,123.41 C510.71,123.41 512.83,122.63 515.71,120.14 L517,121.78 Z" id="Path" fill="#14377D"></path>
            <path d="M542.48,129.32 C541.022128,129.326096 539.607698,128.823974 538.48,127.9 C537.67341,127.101108 537.063978,126.125331 536.7,125.05 C533.92,126.9 530.58,129.32 528.94,129.32 C526.516326,129.365476 524.175094,128.439928 522.437678,126.749469 C520.700263,125.059011 519.710931,122.74401 519.69,120.32 C519.69,116.7 521.47,114.77 525.24,113.42 C529.44,111.93 534.85,110.15 536.49,108.73 L536.49,107 C536.49,102.3 534.49,99.67 531.49,99.67 C530.454359,99.6426629 529.469941,100.119956 528.85,100.95 C527.82754,102.398807 527.125302,104.048725 526.79,105.79 C526.618192,107.115652 525.419228,108.061501 524.09,107.92 C522.45,107.92 520.17,106.36 520.17,104.51 C520.17,103.37 521.03,102.44 522.59,101.38 C526.034544,99.0048709 529.900165,97.3079345 533.98,96.38 C536.323232,96.28954 538.628159,96.9944105 540.52,98.38 C543.37,100.58 544.08,103.64 544.08,107.49 L544.08,119.79 C544.08,123.07 545.22,123.99 546.43,123.99 C547.275084,123.965153 548.103117,123.746169 548.85,123.35 L549.63,125.49 L542.48,129.32 Z M536.48,111.39 C535.05,112.17 533.13,113.17 531.64,113.95 C529.22,115.09 527.94,116.44 527.94,118.95 C527.94,122.79 530.64,124.36 532.49,124.36 C533.965405,124.25944 535.36865,123.68411 536.49,122.72 L536.48,111.39 Z" id="Shape" fill="#14377D"></path>
            <path d="M564.63,128.47 C563.718708,128.934256 562.728089,129.222622 561.71,129.32 C556.59,129.32 553.71,126.69 553.71,120.5 L553.71,100.36 L549,100.36 L548.65,99.51 L550.65,97.16 L553.65,97.16 L553.65,92 L560.48,86.74 L561.4,87.1 L561.4,97.2 L568.8,97.2 C569.185542,97.673565 569.358988,98.2850316 569.279521,98.8904996 C569.200053,99.4959676 568.87469,100.041965 568.38,100.4 L561.38,100.4 L561.38,118.19 C561.38,123.81 563.95,124.59 565.51,124.59 C566.840231,124.555078 568.148365,124.241671 569.35,123.67 L570.07,125.87 L564.63,128.47 Z" id="Path" fill="#14377D"></path>
            <path d="M572.69,128.47 L572.69,126.33 C576.96,125.83 577.39,125.55 577.39,120.57 L577.39,106.27 C577.39,101.71 576.96,101.43 573.26,100.86 L573.26,98.86 C577.335672,98.3684253 581.354332,97.48432 585.26,96.22 L585.26,120.56 C585.26,125.4 585.61,125.82 590.02,126.32 L590.02,128.46 L572.69,128.47 Z M576.25,86.7 C576.271802,84.1922965 578.302255,82.1662961 580.81,82.15 C582.021659,82.1336974 583.188466,82.6078342 584.045316,83.4646842 C584.902166,84.3215342 585.376303,85.4883408 585.36,86.7 C585.344255,87.9094024 584.846577,89.0625276 583.977363,89.9035807 C583.10815,90.7446338 581.939265,91.2040795 580.73,91.18 C578.284503,91.1119578 576.318042,89.1454973 576.25,86.7 L576.25,86.7 Z" id="Shape" fill="#14377D"></path>
            <path d="M623.72,112.24 C623.72,123.7 615.39,129.32 607.57,129.32 C596.89,129.32 591.27,121.32 591.27,113.52 C591.27,101.93 600.38,96.31 607.78,96.31 C612.033842,96.2162915 616.141381,97.8641838 619.150975,100.87189 C622.160569,103.879596 623.811039,107.9861 623.72,112.24 Z M600.17,111 C600.17,119.83 603.37,126.66 608.35,126.66 C611.69,126.66 614.82,124.38 614.82,114.13 C614.82,104.81 611.98,98.84 606.82,98.84 C603.37,98.87 600.17,102.92 600.17,111 Z" id="Shape" fill="#14377D"></path>
            <path d="M646.36,128.47 L646.36,126.33 C649.77,125.9 650.2,125.55 650.2,120.5 L650.2,108.5 C650.2,103.45 647.99,101.32 644.72,101.32 C642.408185,101.483898 640.222867,102.437106 638.53,104.02 L638.53,121.02 C638.53,125.57 638.96,125.85 642.3,126.28 L642.3,128.42 L625.79,128.42 L625.79,126.28 C630.35,125.71 630.7,125.5 630.7,120.8 L630.7,106.12 C630.7,101.71 630.35,101.5 626.7,100.79 L626.7,98.87 C630.713516,98.3070706 634.666806,97.3764908 638.51,96.09 L638.51,101.5 C639.93,100.5 641.36,99.44 643.06,98.37 C645.13,97.02 646.69,96.31 648.76,96.31 C654.45,96.31 657.93,100.43 657.93,107.48 L657.93,121 C657.93,125.62 658.36,125.83 662.27,126.33 L662.27,128.47 L646.36,128.47 Z" id="Path" fill="#14377D"></path>
            <path d="M670.17,107.77 C667.427052,107.830969 664.920096,106.225604 663.827899,103.708744 C662.735702,101.191883 663.275588,98.2643333 665.193705,96.3026229 C667.111822,94.3409124 670.026502,93.7353826 672.567268,94.7707527 C675.108033,95.8061228 676.769322,98.2763746 676.77,101.02 C676.841854,102.805112 676.174658,104.540896 674.925644,105.818297 C673.676631,107.095697 671.956276,107.801726 670.17,107.77 Z M670.17,95.45 C668.737041,95.4666281 667.373417,96.069409 666.396627,97.1179934 C665.419838,98.1665778 664.915124,99.5694607 665,101 C665,104.07 667,106.58 670.2,106.58 C673.08,106.58 675.36,104.3 675.36,101 C675.447973,99.5652806 674.941573,98.1575965 673.959788,97.1077115 C672.978004,96.0578266 671.60739,95.458299 670.17,95.45 L670.17,95.45 Z M668.83,104.88 L667.61,104.88 L667.61,97.42 L670.44,97.42 C672.24,97.42 673.16,98.05 673.16,99.56 C673.185083,100.088992 672.989408,100.604652 672.619704,100.983836 C672.25,101.36302 671.739457,101.571685 671.21,101.56 L673.31,104.84 L671.92,104.84 L670,101.69 L668.84,101.69 L668.83,104.88 Z M670.2,100.64 C671.12,100.64 671.94,100.55 671.94,99.47 C671.94,98.57 671.05,98.47 670.31,98.47 L668.83,98.47 L668.83,100.65 L670.2,100.64 Z" id="Shape" fill="#14377D"></path>
            <polygon id="Path" fill="#8E7D63" points="32.39 9.31 43.62 21.18 44.49 21.18 45.36 21.18 56.58 9.31 81.63 9.31 88.98 0 0 0 7.35 9.31"></polygon>
            <path d="M72.15,73.94 L16.82,73.94 C15.1631458,73.94 13.82,75.2831458 13.82,76.94 C13.82,78.5968542 15.1631458,79.94 16.82,79.94 L19.47,79.94 C17.9378173,82.2230138 17.0626071,84.8832377 16.94,87.63 L14.86,131.22 L20.69,131.22 L22.76,88 C22.97,83.6 26.06,80.15 29.76,80.15 C33.46,80.15 36.76,83.61 36.76,87.86 L36.76,131.31 L42.58,131.31 L42.58,87.82 C42.5911239,85.03773 41.772985,82.3152423 40.23,80 L48.76,80 C47.1970581,82.3117022 46.3644261,85.0395299 46.37,87.83 L46.37,131.28 L52.19,131.28 L52.19,87.82 C52.19,83.57 55.34,80.11 59.19,80.11 C63.04,80.11 65.97,83.48 66.19,87.96 L68.26,131.27 L74.09,131.27 L72,87.68 C71.896946,84.9492519 71.0610628,82.2965318 69.58,80 L72.15,80 C73.8068542,80 75.15,78.6568542 75.15,77 C75.15,75.3431458 73.8068542,74 72.15,74 L72.15,73.94 Z" id="Path" fill="#8E7D63"></path>
            <rect id="Rectangle" fill="#8E7D63" x="30.74" y="85.42" width="3.56" height="43.24"></rect>
            <polygon id="Path" fill="#8E7D63" points="60.26 85.42 61.41 128.66 64.98 128.66 63.82 85.42"></polygon>
            <polygon id="Path" fill="#8E7D63" points="24 128.66 27.56 128.66 28.72 85.42 25.15 85.42"></polygon>
            <rect id="Rectangle" fill="#8E7D63" x="54.67" y="85.42" width="3.56" height="43.24"></rect>
            <path d="M69.08,47.74 C66.18,48.42 55.61,51.6 51.19,62.85 L68,62.85 L68.77,58.13 C68.77,58.05 78.97,55.62 78.97,55.62 C78.74,51 72.58,47.87 69.08,47.74 Z" id="Path" fill="#8E7D63"></path>
            <path d="M21,62.85 L37.77,62.85 C33.36,51.7 22.71,48.43 19.87,47.74 C16.38,47.89 10.24,51.02 10.08,55.62 C10.08,55.62 20.25,58.05 20.25,58.13 L21,62.85 Z" id="Path" fill="#8E7D63"></path>
            <path d="M82.12,35.3 C83.6804008,32.6906544 84.3408933,29.6411466 84,26.62 C82.71,14.83 74.22,12 66,12.64 C59.16,13.2 54.55,17 50.72,21.19 L44.46,28.47 L38.2,21.19 C34.4,17 29.78,13.2 23,12.64 C14.75,12 6.27,14.83 5,26.62 C4.65086344,29.6390408 5.30444898,32.6891066 6.86,35.3 C4.8742047,36.602723 3.56988135,38.7204165 3.3,41.08 L19.73,44.43 C20.73,44.61 35.98,47.7 41.21,62.85 L47.77,62.85 C53,47.7 68.29,44.61 69.24,44.43 L85.67,41.08 C85.4105993,38.7193887 84.1081746,36.5988211 82.12,35.3 Z M76.79,32.16 C75.8652139,34.0864602 74.0932255,35.470017 72,35.9 C69.8974877,36.4732577 67.6477511,36.0210866 65.93,34.68 C64.5839318,33.5983199 63.5915348,32.1393222 63.08,30.49 L67.71,28.72 C67.742743,29.4999852 68.1482327,30.2167443 68.7999165,30.6465783 C69.4516003,31.0764122 70.2701135,31.1669742 71,30.89 C72,30.66 73.64,28.38 72.19,26.03 C70.92,23.93 67.88,24.03 67.84,24.03 C64.84,24.03 57.35,26.08 47.84,44.1 L44.49,51 L41.2,44.09 C31.64,26.07 24.12,24 21.17,24 C21.11,24 18.07,23.91 16.8,26 C15.36,28.35 17.05,30.63 18.01,30.86 C18.7351894,31.1209622 19.5411789,31.0224327 20.1821486,30.5944622 C20.8231183,30.1664916 21.2230619,29.4598289 21.26,28.69 L25.9,30.46 C25.3746418,32.1238264 24.3649303,33.5931307 23,34.68 C21.2998063,36.0003432 19.0808098,36.4515391 17,35.9 C14.9063469,35.4656811 13.1329898,34.0839403 12.2,32.16 C10.9639005,29.4929278 10.9639005,26.4170722 12.2,23.75 C13.67,20.63 17.12,18.97 20.93,18.87 C23.51,18.81 27.64,19.62 32.6,23.87 C36.66,27.34 40.67,32.58 44.53,39.43 C48.39,32.58 52.4,27.34 56.46,23.87 C61.41,19.64 65.55,18.87 68.13,18.87 C71.94,18.97 75.38,20.63 76.86,23.75 C78.0739476,26.4273507 78.0483458,29.5032272 76.79,32.16 Z" id="Shape" fill="#8E7D63"></path>
            <path d="M72.15,65.41 L16.82,65.41 C15.1631458,65.41 13.82,66.7531458 13.82,68.41 C13.82,70.0668542 15.1631458,71.41 16.82,71.41 L72.15,71.41 C73.8068542,71.41 75.15,70.0668542 75.15,68.41 C75.15,66.7531458 73.8068542,65.41 72.15,65.41 Z" id="Path" fill="#8E7D63"></path>
        </g>
    </g>
</svg>
