<svg id="Group_68" data-name="Group 68" xmlns="http://www.w3.org/2000/svg" xmlns:xlink="http://www.w3.org/1999/xlink" width="159.888" height="149.627" viewBox="0 0 159.888 149.627">
  <defs>
    <clipPath id="clip-path">
      <rect id="Rectangle_127" data-name="Rectangle 127" width="159.888" height="149.627" fill="none"/>
    </clipPath>
  </defs>
  <path id="Path_10573" data-name="Path 10573" d="M124.872,65.217l5.571,23.588-9.054,8.35-9.055-8.35L117.9,65.217" fill="#43a3da"/>
  <g id="Group_67" data-name="Group 67">
    <g id="Group_66" data-name="Group 66" clip-path="url(#clip-path)">
      <path id="Path_10574" data-name="Path 10574" d="M121.388,67.57a1.1,1.1,0,0,1-.659-.22l-6.294-4.738a1.1,1.1,0,0,1,1.319-1.753l5.634,4.242,5.635-4.242a1.1,1.1,0,0,1,1.319,1.753l-6.294,4.738a1.1,1.1,0,0,1-.66.22" fill="#fff"/>
      <path id="Path_10575" data-name="Path 10575" d="M136.646,88.011a1.1,1.1,0,0,1-.222-2.171l20.887-4.326-2.689-13.462a13.222,13.222,0,0,0-4.532-7.576,10.584,10.584,0,0,0-4.346-2.3l-.071-.018-12.408-3.6a3.749,3.749,0,0,1-1.064-.5,3.793,3.793,0,0,1-1.65-2.71l-.644-5.524.488-.379a20.136,20.136,0,0,0,6.889-10.85l.2-.746.769-.068c1.635-.145,2.917-2.2,2.917-4.677,0-2.305-1.089-4.251-2.59-4.628a1.1,1.1,0,1,1,.534-2.127c2.5.628,4.249,3.406,4.249,6.755,0,3.316-1.732,6.047-4.139,6.72a22.364,22.364,0,0,1-6.992,10.962l.5,4.308a1.609,1.609,0,0,0,.7,1.146,1.588,1.588,0,0,0,.449.21l12.374,3.593a12.778,12.778,0,0,1,5.236,2.74,15.425,15.425,0,0,1,5.286,8.839l3.116,15.6L136.87,87.988a1.159,1.159,0,0,1-.224.023" fill="#fff"/>
      <path id="Path_10576" data-name="Path 10576" d="M91.992,60.727a1.1,1.1,0,0,1-.7-1.942,12.787,12.787,0,0,1,5.275-2.755L108.9,52.45a1.6,1.6,0,0,0,1.146-1.356l.5-4.308a22.46,22.46,0,0,1-7-10.964c-2.4-.678-4.127-3.408-4.127-6.718,0-3.263,1.689-6.025,4.107-6.715a1.1,1.1,0,0,1,.6,2.109c-1.458.416-2.517,2.353-2.517,4.606,0,2.473,1.277,4.528,2.907,4.677l.765.07.2.743a20.236,20.236,0,0,0,6.894,10.852l.486.378-.638,5.522a3.8,3.8,0,0,1-2.713,3.211L97.077,58.164a10.631,10.631,0,0,0-4.388,2.312,1.094,1.094,0,0,1-.7.251" fill="#fff"/>
      <path id="Path_10577" data-name="Path 10577" d="M103.83,24.54a1.1,1.1,0,0,1-1.1-1.047c-.019-.42-.392-10.358,5.672-16.7,3.195-3.341,7.563-5.036,12.98-5.036s9.784,1.7,12.964,5.039c6.029,6.336,5.608,16.254,5.586,16.673a1.1,1.1,0,0,1-2.19-.108c.005-.093.388-9.418-4.993-15.063C130,5.412,126.18,3.949,121.387,3.949S112.766,5.412,110,8.3c-5.417,5.656-5.08,15-5.076,15.1a1.1,1.1,0,0,1-1.047,1.144h-.049" fill="#fff"/>
      <path id="Path_10578" data-name="Path 10578" d="M129.624,17.519a24.792,24.792,0,0,1-2.711-.155,26.12,26.12,0,0,1-8.682-2.985c-.694-.338-1.413-.688-2.136-1.018-2.753-1.256-5.076-1.555-6.9-.89a5.507,5.507,0,0,0-3.058,2.619,1.1,1.1,0,1,1-1.971-.961,7.641,7.641,0,0,1,4.279-3.719c2.389-.87,5.27-.547,8.565.956.748.341,1.479.7,2.185,1.041a24.071,24.071,0,0,0,7.963,2.777,16.843,16.843,0,0,0,9.908-1.6,1.1,1.1,0,0,1,1,1.954,18.05,18.05,0,0,1-8.433,1.984" fill="#fff"/>
      <path id="Path_10579" data-name="Path 10579" d="M121.388,60.23a1.089,1.089,0,0,1-.731-.28l-10.121-9.062A1.1,1.1,0,0,1,112,49.254l9.389,8.408,9.389-8.408a1.1,1.1,0,1,1,1.463,1.635L122.119,59.95a1.089,1.089,0,0,1-.731.28" fill="#fff"/>
      <path id="Path_10580" data-name="Path 10580" d="M137.554,75.527a1.1,1.1,0,0,1-.2-2.174L148.8,71.2a1.1,1.1,0,1,1,.4,2.155l-11.452,2.155a1.012,1.012,0,0,1-.2.02" fill="#fff"/>
      <path id="Path_10581" data-name="Path 10581" d="M77.087,149.627a152.8,152.8,0,0,1-30.921-3.169l-8.192-1.7,3.164-15.837a15.66,15.66,0,0,1,5.365-8.973,12.955,12.955,0,0,1,5.317-2.783L64.4,113.515a1.644,1.644,0,0,0,1.179-1.394l.518-4.439A15.218,15.218,0,0,1,60.8,96.276v-.041c-.058-6.546,2.587-18.459,2.7-18.963l.018-.07a14.033,14.033,0,0,1,27.135,0l.017.07c.113.5,2.758,12.417,2.7,18.963v.041a15.211,15.211,0,0,1-5.292,11.406l.518,4.439a1.652,1.652,0,0,0,.718,1.178,1.612,1.612,0,0,0,.462.216l12.578,3.653a12.954,12.954,0,0,1,5.314,2.782,15.66,15.66,0,0,1,5.368,8.973l3.164,15.838-8.193,1.7a152.8,152.8,0,0,1-30.921,3.169m-36.536-6.572,6.061,1.255a150.491,150.491,0,0,0,30.475,3.123,150.508,150.508,0,0,0,30.476-3.123l6.06-1.255-2.737-13.7a13.453,13.453,0,0,0-4.611-7.711,10.773,10.773,0,0,0-4.427-2.34l-.07-.018-12.613-3.663a3.842,3.842,0,0,1-2.746-3.246l-.647-5.549.416-.379c3.431-3.128,4.786-5.908,4.992-10.252.048-6.131-2.481-17.687-2.641-18.41a11.508,11.508,0,0,0-11.381-8.841l-.071,0-.071,0c-.353-.022-8.648-.408-11.382,8.841-.159.724-2.687,12.279-2.639,18.41.205,4.344,1.56,7.125,4.993,10.252l.416.379-.649,5.549a3.847,3.847,0,0,1-2.746,3.247L52.326,119.3a10.776,10.776,0,0,0-4.427,2.341,13.468,13.468,0,0,0-4.611,7.711Z" fill="#fff"/>
      <path id="Path_10582" data-name="Path 10582" d="M77.088,121.388a1.089,1.089,0,0,1-.731-.28L66.069,111.9a1.1,1.1,0,0,1,1.463-1.634l9.556,8.557,9.556-8.557a1.1,1.1,0,0,1,1.463,1.634l-10.288,9.211a1.089,1.089,0,0,1-.731.28" fill="#fff"/>
      <path id="Path_10583" data-name="Path 10583" d="M83.781,128.191l-7.45-7.106a1.1,1.1,0,1,1,1.513-1.587l5.932,5.658,6.507-6.243A1.1,1.1,0,1,1,91.8,120.5Z" fill="#fff"/>
      <path id="Path_10584" data-name="Path 10584" d="M70.394,128.191l-8.021-7.7a1.1,1.1,0,1,1,1.519-1.582l6.507,6.243,5.932-5.658a1.1,1.1,0,0,1,1.513,1.587Z" fill="#fff"/>
      <path id="Path_10585" data-name="Path 10585" d="M96.213,107.945a18.222,18.222,0,0,1-3.086-.27,1.1,1.1,0,0,1,.371-2.162,13.672,13.672,0,0,0,13.22-4.636,11.222,11.222,0,0,1-7.131-5.926c-2.059-3.876-2.488-7.819-2.943-11.994-.061-.555-.121-1.113-.187-1.674a31.732,31.732,0,0,0-2.205-9.34C91.528,65.855,84.47,61.6,77.088,61.6a1.1,1.1,0,1,1,0-2.193c8.22,0,16.1,4.785,19.166,11.638a33.687,33.687,0,0,1,2.382,9.981q.1.851.188,1.69c.431,3.959.839,7.7,2.7,11.2a8.986,8.986,0,0,0,7.227,5.117l1.657.2-.841,1.442a16.155,16.155,0,0,1-13.355,7.264" fill="#fff"/>
      <path id="Path_10586" data-name="Path 10586" d="M57.964,107.945a16.15,16.15,0,0,1-13.355-7.264l-.842-1.442,1.657-.2a8.984,8.984,0,0,0,7.228-5.117c1.861-3.5,2.269-7.244,2.7-11.2q.09-.84.188-1.69a33.668,33.668,0,0,1,2.381-9.981C60.987,64.195,68.869,59.41,77.088,59.41a1.1,1.1,0,1,1,0,2.193c-7.382,0-14.439,4.252-17.164,10.34a31.746,31.746,0,0,0-2.2,9.34c-.066.561-.126,1.119-.187,1.674-.455,4.175-.884,8.118-2.943,11.994a11.219,11.219,0,0,1-7.131,5.926,13.677,13.677,0,0,0,13.221,4.636,1.1,1.1,0,0,1,.371,2.162,18.222,18.222,0,0,1-3.086.27" fill="#fff"/>
      <path id="Path_10587" data-name="Path 10587" d="M64.114,57.5a1.09,1.09,0,0,1-.307-.044L51.159,53.785a3.85,3.85,0,0,1-2.752-3.252l-.655-5.619.488-.38a20.544,20.544,0,0,0,7.03-11.072l.2-.746.768-.068c1.678-.148,2.992-2.252,2.992-4.788,0-2.36-1.116-4.353-2.655-4.739a1.1,1.1,0,0,1,.533-2.127c2.541.637,4.316,3.461,4.316,6.866,0,3.375-1.764,6.155-4.215,6.832a22.786,22.786,0,0,1-7.134,11.184l.514,4.4a1.653,1.653,0,0,0,.72,1.183,1.629,1.629,0,0,0,.464.218l12.65,3.673a1.1,1.1,0,0,1-.306,2.15" fill="#fff"/>
      <path id="Path_10588" data-name="Path 10588" d="M48.913,84.1H1.806A1.8,1.8,0,0,1,.043,81.913L3,67.129a15.652,15.652,0,0,1,5.383-9,13.024,13.024,0,0,1,5.371-2.8l12.571-3.65a1.65,1.65,0,0,0,1.183-1.4l.509-4.4A22.865,22.865,0,0,1,20.877,34.69c-2.444-.682-4.2-3.461-4.2-6.83,0-3.318,1.716-6.125,4.172-6.825a1.1,1.1,0,1,1,.6,2.109c-1.5.426-2.58,2.409-2.58,4.716,0,2.532,1.31,4.636,2.983,4.788l.765.07.195.743a20.65,20.65,0,0,0,7.035,11.074l.487.379-.649,5.617a3.849,3.849,0,0,1-2.751,3.255L14.257,57.462a10.861,10.861,0,0,0-4.481,2.362,13.461,13.461,0,0,0-4.63,7.734L2.28,81.908H48.913a1.1,1.1,0,0,1,0,2.193M2.191,82.355l0,.016,0-.016" fill="#fff"/>
      <path id="Path_10589" data-name="Path 10589" d="M21.145,23.185a1.1,1.1,0,0,1-1.094-1.047c-.019-.428-.4-10.55,5.777-17.01C29.081,1.726,33.527,0,39.043,0s9.963,1.727,13.2,5.13c6.139,6.453,5.71,16.555,5.688,16.982A1.1,1.1,0,1,1,55.744,22c0-.1.394-9.61-5.1-15.371-2.808-2.946-6.711-4.439-11.6-4.439s-8.8,1.494-11.622,4.441c-5.528,5.772-5.183,15.31-5.179,15.406a1.1,1.1,0,0,1-1.047,1.143h-.05" fill="#fff"/>
      <path id="Path_10590" data-name="Path 10590" d="M47.442,16.028a24.977,24.977,0,0,1-2.763-.159,26.6,26.6,0,0,1-8.842-3.04c-.708-.345-1.441-.7-2.179-1.038-2.812-1.282-5.186-1.588-7.055-.909a5.639,5.639,0,0,0-3.13,2.682A1.1,1.1,0,1,1,21.5,12.6a7.771,7.771,0,0,1,4.35-3.782c2.429-.883,5.361-.555,8.715.975.763.348,1.508.71,2.228,1.06A24.548,24.548,0,0,0,44.92,13.69a17.185,17.185,0,0,0,10.112-1.636,1.1,1.1,0,0,1,.995,1.954,18.378,18.378,0,0,1-8.585,2.02" fill="#fff"/>
      <path id="Path_10591" data-name="Path 10591" d="M39.044,65.54a1.093,1.093,0,0,1-.789-.335L26.609,53.132a1.1,1.1,0,0,1,1.579-1.522L39.833,63.682a1.1,1.1,0,0,1-.789,1.858" fill="#fff"/>
      <path id="Path_10592" data-name="Path 10592" d="M39.044,65.54a1.1,1.1,0,0,1-.789-1.858L49.9,51.61a1.1,1.1,0,0,1,1.579,1.522L39.833,65.205a1.093,1.093,0,0,1-.789.335" fill="#fff"/>
      <path id="Path_10593" data-name="Path 10593" d="M51.963,56.121,41.19,67.533a3.012,3.012,0,0,1-4.291,0L26.125,56.121l-4.393,1.336L38.994,75.926l.05-.048.05.048L56.357,57.457Z" fill="#43a3da"/>
      <path id="Path_10594" data-name="Path 10594" d="M79.389,131.077a2.3,2.3,0,1,1-2.3-2.3,2.3,2.3,0,0,1,2.3,2.3" fill="#43a3da"/>
      <path id="Path_10595" data-name="Path 10595" d="M79.389,139.314a2.3,2.3,0,1,1-2.3-2.3,2.3,2.3,0,0,1,2.3,2.3" fill="#43a3da"/>
    </g>
  </g>
</svg>
