<svg id="Group_75" data-name="Group 75" xmlns="http://www.w3.org/2000/svg" xmlns:xlink="http://www.w3.org/1999/xlink" width="123.039" height="124.797" viewBox="0 0 123.039 124.797">
  <title>Case Study Icon</title>
  <defs>
    <clipPath id="clip-path">
      <rect id="Rectangle_132" data-name="Rectangle 132" width="123.039" height="124.797" fill="none"/>
    </clipPath>
  </defs>
  <rect id="Rectangle_130" data-name="Rectangle 130" width="6.159" height="23.219" transform="translate(13.206 20.932)" fill="#43a3da"/>
  <rect id="Rectangle_131" data-name="Rectangle 131" width="6.159" height="10.361" transform="translate(29.954 33.79)" fill="#43a3da"/>
  <path id="Path_10627" data-name="Path 10627" d="M52.861,35.388V20.931H46.7v9.8Z" fill="#43a3da"/>
  <g id="Group_74" data-name="Group 74">
    <g id="Group_73" data-name="Group 73" clip-path="url(#clip-path)">
      <path id="Path_10628" data-name="Path 10628" d="M33.034,25.129a1.521,1.521,0,0,1-.928-.315L15.358,11.956A1.523,1.523,0,1,1,17.213,9.54L33.034,21.686,48.854,9.54A1.524,1.524,0,0,1,50.6,9.464l16.748,10.7a1.523,1.523,0,0,1-1.639,2.568L49.862,12.606l-15.9,12.208a1.52,1.52,0,0,1-.927.315" fill="#fff"/>
      <path id="Path_10629" data-name="Path 10629" d="M85.38,117.476a1.523,1.523,0,0,1-1.523-1.523V53.375a1.522,1.522,0,1,1,3.045,0v62.578a1.522,1.522,0,0,1-1.522,1.523" fill="#fff"/>
      <path id="Path_10630" data-name="Path 10630" d="M98.325,117.476a1.523,1.523,0,0,1-1.523-1.523V74.8a1.522,1.522,0,1,1,3.045,0v41.149a1.522,1.522,0,0,1-1.522,1.523" fill="#fff"/>
      <path id="Path_10631" data-name="Path 10631" d="M111.271,117.476a1.522,1.522,0,0,1-1.522-1.523V74.8a1.522,1.522,0,1,1,3.045,0v41.149a1.523,1.523,0,0,1-1.523,1.523" fill="#fff"/>
      <path id="Path_10632" data-name="Path 10632" d="M111.271,76.327a1.522,1.522,0,0,1-1.522-1.523V53.376a1.522,1.522,0,1,1,3.045,0V74.8a1.523,1.523,0,0,1-1.523,1.523" fill="#fff"/>
      <path id="Path_10633" data-name="Path 10633" d="M98.325,30.066A13.706,13.706,0,1,1,112.031,16.36,13.721,13.721,0,0,1,98.325,30.066m0-24.366a10.66,10.66,0,1,0,10.66,10.66A10.672,10.672,0,0,0,98.325,5.7" fill="#fff"/>
      <path id="Path_10634" data-name="Path 10634" d="M121.516,73.352a1.522,1.522,0,0,1-1.522-1.523v-27.8a6.409,6.409,0,0,0-6.4-6.4H83.058a6.408,6.408,0,0,0-6.4,6.4V67.011a1.523,1.523,0,0,1-2.6,1.077L41.7,35.733a1.523,1.523,0,1,1,2.154-2.153L73.612,63.334V44.025a9.457,9.457,0,0,1,9.446-9.447h30.534a9.457,9.457,0,0,1,9.447,9.447v27.8a1.523,1.523,0,0,1-1.523,1.523" fill="#fff"/>
      <path id="Path_10635" data-name="Path 10635" d="M111.271,76.327H85.38a1.523,1.523,0,0,1,0-3.046h25.891a1.523,1.523,0,0,1,0,3.046" fill="#fff"/>
      <path id="Path_10636" data-name="Path 10636" d="M98.325,51.744A1.523,1.523,0,0,1,96.8,50.221V36.1a1.522,1.522,0,1,1,3.045,0v14.12a1.522,1.522,0,0,1-1.522,1.523" fill="#fff"/>
      <path id="Path_10637" data-name="Path 10637" d="M98.326,124.8h-17.9a1.523,1.523,0,0,1-1.523-1.523,8.947,8.947,0,0,1,8.936-8.937H98.326a1.522,1.522,0,0,1,1.522,1.523v7.414a1.522,1.522,0,0,1-1.522,1.523m-16.179-3.046H96.8v-4.368H87.837a5.9,5.9,0,0,0-5.69,4.368" fill="#fff"/>
      <path id="Path_10638" data-name="Path 10638" d="M116.227,124.8h-17.9a1.523,1.523,0,0,1-1.524-1.523V115.86a1.523,1.523,0,0,1,1.524-1.523h10.488a8.946,8.946,0,0,1,8.936,8.937,1.523,1.523,0,0,1-1.523,1.523m-16.379-3.046H114.5a5.9,5.9,0,0,0-5.69-4.368H99.848Z" fill="#fff"/>
      <path id="Path_10639" data-name="Path 10639" d="M52.861,54.9H1.522A1.522,1.522,0,0,1,0,53.376V1.523A1.522,1.522,0,0,1,1.522,0H75.133a1.523,1.523,0,0,1,1.524,1.523V32.472a1.523,1.523,0,1,1-3.046,0V3.045H3.047V51.853H52.861a1.523,1.523,0,0,1,0,3.046" fill="#fff"/>
      <path id="Path_10640" data-name="Path 10640" d="M16.286,124.8a1.523,1.523,0,0,1-1.078-2.6l21.6-21.634V53.376a1.523,1.523,0,1,1,3.045,0v47.818a1.523,1.523,0,0,1-.445,1.076L17.363,124.35a1.516,1.516,0,0,1-1.077.447" fill="#fff"/>
      <path id="Path_10641" data-name="Path 10641" d="M60.383,124.8a1.517,1.517,0,0,1-1.077-.447L37.251,102.27a1.523,1.523,0,1,1,2.155-2.152L61.461,122.2a1.523,1.523,0,0,1-1.078,2.6" fill="#fff"/>
    </g>
  </g>
</svg>
