<svg id="Group_70" data-name="Group 70" xmlns="http://www.w3.org/2000/svg" xmlns:xlink="http://www.w3.org/1999/xlink" width="110.933" height="133.505" viewBox="0 0 110.933 133.505">
  <defs>
    <clipPath id="clip-path">
      <rect id="Rectangle_128" data-name="Rectangle 128" width="110.933" height="133.505" fill="none"/>
    </clipPath>
  </defs>
  <g id="Group_69" data-name="Group 69" clip-path="url(#clip-path)">
    <path id="Path_10596" data-name="Path 10596" d="M11.911,113.4a1.522,1.522,0,0,1-1.522-1.523v-7.695a8.951,8.951,0,0,1,8.941-8.942H48.048a5.9,5.9,0,0,0,5.9-5.9V80.722a1.523,1.523,0,1,1,3.046,0v8.625a8.952,8.952,0,0,1-8.941,8.943H19.33a5.9,5.9,0,0,0-5.9,5.9v7.695a1.523,1.523,0,0,1-1.523,1.523" fill="#fff"/>
    <path id="Path_10597" data-name="Path 10597" d="M99.021,113.4a1.522,1.522,0,0,1-1.522-1.523v-7.695a5.9,5.9,0,0,0-5.9-5.9H62.886a8.953,8.953,0,0,1-8.943-8.943V80.722a1.523,1.523,0,1,1,3.046,0v8.625a5.9,5.9,0,0,0,5.9,5.9H91.6a8.952,8.952,0,0,1,8.942,8.942v7.695a1.523,1.523,0,0,1-1.523,1.523" fill="#fff"/>
    <path id="Path_10598" data-name="Path 10598" d="M79.653,118.624H71.128a3.178,3.178,0,0,0-3.179,3.178v8.525a3.178,3.178,0,0,0,3.179,3.178h8.524a3.179,3.179,0,0,0,3.179-3.179V121.8a3.178,3.178,0,0,0-3.178-3.178" fill="#43a3da"/>
    <path id="Path_10599" data-name="Path 10599" d="M103.285,118.624H94.76a3.178,3.178,0,0,0-3.179,3.178v8.525a3.178,3.178,0,0,0,3.179,3.178h8.524a3.179,3.179,0,0,0,3.179-3.179V121.8a3.178,3.178,0,0,0-3.178-3.178" fill="#43a3da"/>
    <path id="Path_10600" data-name="Path 10600" d="M16.173,118.624H7.648A3.178,3.178,0,0,0,4.47,121.8v8.525a3.178,3.178,0,0,0,3.178,3.178h8.525a3.178,3.178,0,0,0,3.178-3.178V121.8a3.178,3.178,0,0,0-3.178-3.178" fill="#43a3da"/>
    <path id="Path_10601" data-name="Path 10601" d="M39.8,118.624H31.279A3.178,3.178,0,0,0,28.1,121.8v8.525a3.178,3.178,0,0,0,3.178,3.178H39.8a3.178,3.178,0,0,0,3.178-3.178V121.8a3.178,3.178,0,0,0-3.178-3.178" fill="#43a3da"/>
    <path id="Path_10602" data-name="Path 10602" d="M105.383,82.179H5.549A5.555,5.555,0,0,1,0,76.63V14.763a1.524,1.524,0,0,1,3.047,0V76.63a2.505,2.505,0,0,0,2.5,2.5h99.834a2.506,2.506,0,0,0,2.5-2.5V18.79a2.506,2.506,0,0,0-2.5-2.5H39.949a1.522,1.522,0,1,1,0-3.045h65.434a5.555,5.555,0,0,1,5.549,5.549V76.63a5.555,5.555,0,0,1-5.549,5.549" fill="#fff"/>
    <path id="Path_10603" data-name="Path 10603" d="M39.949,16.286H1.523A1.523,1.523,0,0,1,0,14.763V1.522A1.523,1.523,0,0,1,1.523,0H30.346A8.949,8.949,0,0,1,38.94,6.34L41.4,14.313a1.524,1.524,0,0,1-1.455,1.973M3.046,13.24H37.884l-1.855-6a5.917,5.917,0,0,0-5.683-4.194H3.046Z" fill="#fff"/>
    <path id="Path_10604" data-name="Path 10604" d="M81.032,82.179a1.522,1.522,0,0,1-1.522-1.523V61.444a6.3,6.3,0,0,0-6.29-6.29H37.714a6.3,6.3,0,0,0-6.29,6.29V80.656a1.523,1.523,0,1,1-3.046,0V61.444a9.347,9.347,0,0,1,9.336-9.336H73.22a9.347,9.347,0,0,1,9.335,9.336V80.656a1.523,1.523,0,0,1-1.523,1.523" fill="#fff"/>
    <path id="Path_10605" data-name="Path 10605" d="M35.542,113.4a1.523,1.523,0,0,1-1.523-1.523V96.767a1.522,1.522,0,1,1,3.045,0v15.114a1.522,1.522,0,0,1-1.522,1.523" fill="#fff"/>
    <path id="Path_10606" data-name="Path 10606" d="M75.389,113.4a1.522,1.522,0,0,1-1.522-1.523V96.767a1.523,1.523,0,1,1,3.045,0v15.114a1.523,1.523,0,0,1-1.523,1.523" fill="#fff"/>
    <path id="Path_10607" data-name="Path 10607" d="M65.247,20.855l.3.129A61.932,61.932,0,0,1,100.105,59.24l3.213,10.191V20.855Z" fill="#43a3da"/>
  </g>
</svg>
