<svg xmlns="http://www.w3.org/2000/svg" xmlns:xlink="http://www.w3.org/1999/xlink" width="250" height="58.367" viewBox="0 0 250 58.367"><defs></defs><g transform="translate(-392 -2525.131)"><g transform="translate(392 2525.131)"><g clip-path="url(#a)"><text transform="translate(80.889 21.453)" fill="#fff" font-size="26" font-family="MinionPro-Semibold, Minion Pro" font-weight="600"><tspan x="0" y="0"> </tspan></text><text transform="translate(41.845 21.453)" fill="#fff" font-size="26" font-family="MinionPro-Semibold, Minion Pro" font-weight="600"><tspan x="0" y="0" letter-spacing="0.005em">I</tspan><tspan y="0" letter-spacing="0.006em">n</tspan><tspan y="0" letter-spacing="0.005em">s</tspan><tspan y="0" letter-spacing="0.006em">titut</tspan><tspan y="0">e</tspan></text><text transform="translate(178.448 21.453)" fill="#fff" font-size="26" font-family="MinionPro-Semibold, Minion Pro" font-weight="600"><tspan x="0" y="0"> </tspan></text><text transform="translate(141.196 21.453)" fill="#fff" font-size="26" font-family="MinionPro-SemiboldIt, Minion Pro" font-weight="600" font-style="italic"><tspan x="0" y="0">for</tspan></text><text transform="translate(40.881 48.966)" fill="#fff" font-size="26" font-family="MinionPro-Semibold, Minion Pro" font-weight="600"><tspan x="0" y="0">Classical Education</tspan></text></g><path d="M0,1.453,2.721,4.9h9.272l4.159,4.392H16.8L20.95,4.9h9.277l2.72-3.449Z" transform="translate(0 0)" fill="#fff"/><g clip-path="url(#a)"><path d="M7.371,19.133c-1.291.046-3.58,1.209-3.641,2.918,0,0,3.772.9,3.772.931l.286,1.749H14a9.081,9.081,0,0,0-6.629-5.6" transform="translate(0.004 0.022)" fill="#fff"/><path d="M25.6,17.937l6.153-1.254a2.951,2.951,0,0,0-1.318-2.15,5.136,5.136,0,0,0,.684-3.219c-.463-4.369-3.61-5.434-6.648-5.181A8.477,8.477,0,0,0,18.813,9.3L16.489,12,14.171,9.3A8.5,8.5,0,0,0,8.505,6.133c-3.038-.253-6.183.812-6.649,5.181a5.132,5.132,0,0,0,.685,3.219,2.959,2.959,0,0,0-1.319,2.15l6.184,1.26a10.463,10.463,0,0,1,7.863,6.8h2.442A10.469,10.469,0,0,1,25.6,17.937m-9.115,2.419L15.27,17.792c-3.541-6.68-6.332-7.44-7.423-7.44a1.957,1.957,0,0,0-1.619.745,1.253,1.253,0,0,0,.446,1.8.9.9,0,0,0,1.206-.8l1.719.657a3.26,3.26,0,0,1-1.059,1.554,2.58,2.58,0,0,1-2.249.453,2.554,2.554,0,0,1-1.777-1.39,3.7,3.7,0,0,1-.007-3.116A3.521,3.521,0,0,1,7.74,8.444a6.487,6.487,0,0,1,4.328,1.844,21.429,21.429,0,0,1,4.421,5.77,21.472,21.472,0,0,1,4.424-5.77,6.476,6.476,0,0,1,4.326-1.844,3.529,3.529,0,0,1,3.237,1.809,3.7,3.7,0,0,1-.01,3.116,2.545,2.545,0,0,1-1.775,1.39,2.579,2.579,0,0,1-2.249-.453,3.235,3.235,0,0,1-1.058-1.554l1.717-.657a.9.9,0,0,0,1.208.8,1.252,1.252,0,0,0,.443-1.8,1.952,1.952,0,0,0-1.613-.745c-1.1,0-3.888.761-7.427,7.44Z" transform="translate(0.001 0.007)" fill="#fff"/><path d="M25.585,19.133a9.083,9.083,0,0,0-6.627,5.6h6.21l.286-1.749c0-.028,3.778-.931,3.778-.931-.066-1.709-2.354-2.873-3.648-2.918" transform="translate(0.022 0.022)" fill="#fff"/><path d="M6.23,27.917H26.742a1.122,1.122,0,1,0,0-2.245H6.23a1.122,1.122,0,1,0,0,2.245" transform="translate(0.006 0.029)" fill="#fff"/><path d="M10.636,33.075,9.316,33.04,8.9,49.117H10.22Z" transform="translate(0.01 0.038)" fill="#fff"/><rect width="1.321" height="16.06" transform="translate(11.396 33.095)" fill="#fff"/><rect width="1.321" height="16.061" transform="translate(20.268 33.094)" fill="#fff"/><path d="M23.632,33.038l-1.321.035.415,16.044H24.05Z" transform="translate(0.025 0.038)" fill="#fff"/><path d="M8.431,34.03a2.848,2.848,0,0,1,2.607-2.911,2.739,2.739,0,0,1,2.592,2.86V50.085h2.159V33.979a5.179,5.179,0,0,0-.883-2.9h3.162a5.164,5.164,0,0,0-.885,2.9V50.085H19.34V33.978a2.745,2.745,0,0,1,2.607-2.859,2.81,2.81,0,0,1,2.594,2.911l.768,16.055h2.16L26.7,33.927a5.631,5.631,0,0,0-.91-2.851h.955a1.122,1.122,0,0,0,0-2.245H6.23a1.122,1.122,0,0,0,0,2.245h.981a5.539,5.539,0,0,0-.936,2.851L5.5,50.085h2.16Z" transform="translate(0.006 0.033)" fill="#fff"/></g></g></g></svg>
