<svg id="Group_72" data-name="Group 72" xmlns="http://www.w3.org/2000/svg" xmlns:xlink="http://www.w3.org/1999/xlink" width="124.209" height="135.111" viewBox="0 0 124.209 135.111">
  <title>Online Content Icon</title>
  <defs>
    <clipPath id="clip-path">
      <rect id="Rectangle_129" data-name="Rectangle 129" width="124.209" height="135.111" fill="none"/>
    </clipPath>
  </defs>
  <g id="Group_71" data-name="Group 71" clip-path="url(#clip-path)">
    <path id="Path_10608" data-name="Path 10608" d="M50.1,45.384a1.526,1.526,0,0,1-1.062-.43l-8.214-7.978H3.5a3.5,3.5,0,0,1-3.5-3.5V3.5A3.505,3.505,0,0,1,3.5,0H48.122a3.5,3.5,0,0,1,3.5,3.5v40.36A1.522,1.522,0,0,1,50.1,45.384M3.5,3.046a.456.456,0,0,0-.455.456V33.475a.455.455,0,0,0,.455.455H41.443a1.524,1.524,0,0,1,1.061.431l6.073,5.9V3.5a.455.455,0,0,0-.455-.455Z" fill="#43a3da"/>
    <path id="Path_10609" data-name="Path 10609" d="M74.074,110.805H53.257a2.531,2.531,0,0,1-2.533-1.848,2.263,2.263,0,0,1,1.251-2.553,9.132,9.132,0,0,0,5.084-6.053,28.709,28.709,0,0,0,.382-7.215,1.522,1.522,0,0,1,3.032-.28,31.492,31.492,0,0,1-.427,8.095,11.465,11.465,0,0,1-4.51,6.808H74.074a1.523,1.523,0,1,1,0,3.046m-20.711-1.69h0Z" fill="#fff"/>
    <path id="Path_10610" data-name="Path 10610" d="M74.074,88.922a1.76,1.76,0,1,1,1.761-1.76,1.762,1.762,0,0,1-1.761,1.76m0-3.046a1.286,1.286,0,1,0,1.286,1.286,1.287,1.287,0,0,0-1.286-1.286" fill="#fff"/>
    <path id="Path_10611" data-name="Path 10611" d="M74.108,94.52H25.462A1.523,1.523,0,0,1,23.94,93V81.327A1.523,1.523,0,0,1,25.462,79.8h97.224a1.523,1.523,0,1,1,0,3.046h-95.7v8.624H74.108a1.523,1.523,0,0,1,0,3.046" fill="#fff"/>
    <path id="Path_10612" data-name="Path 10612" d="M94.892,110.805H74.074a1.522,1.522,0,0,1,0-3.045H92.613a11.465,11.465,0,0,1-4.51-6.808,31.569,31.569,0,0,1-.428-8.1,1.523,1.523,0,1,1,3.033.28,28.921,28.921,0,0,0,.382,7.215,9.127,9.127,0,0,0,5.086,6.053,2.264,2.264,0,0,1,1.249,2.552,2.53,2.53,0,0,1-2.533,1.848m-.1-1.689h0" fill="#fff"/>
    <path id="Path_10613" data-name="Path 10613" d="M74.074,88.922a1.76,1.76,0,1,1,1.761-1.76,1.762,1.762,0,0,1-1.761,1.76m0-3.046a1.286,1.286,0,1,0,1.286,1.286,1.287,1.287,0,0,0-1.286-1.286" fill="#fff"/>
    <path id="Path_10614" data-name="Path 10614" d="M122.686,94.52H74.04a1.523,1.523,0,1,1,0-3.046h47.123V81.327a1.522,1.522,0,1,1,3.045,0V93a1.522,1.522,0,0,1-1.522,1.523" fill="#fff"/>
    <path id="Path_10615" data-name="Path 10615" d="M25.462,82.85a1.522,1.522,0,0,1-1.522-1.523V41.546a1.523,1.523,0,1,1,3.045,0V81.327a1.523,1.523,0,0,1-1.523,1.523" fill="#fff"/>
    <path id="Path_10616" data-name="Path 10616" d="M122.686,82.85a1.523,1.523,0,0,1-1.523-1.523V18.474H56.626a1.523,1.523,0,0,1,0-3.046h66.06a1.522,1.522,0,0,1,1.522,1.523V81.327a1.522,1.522,0,0,1-1.522,1.523" fill="#fff"/>
    <path id="Path_10617" data-name="Path 10617" d="M117.684,135.111H30.939a1.523,1.523,0,0,1-1.252-2.391L39.84,118.079a1.524,1.524,0,0,1,1.252-.656h66.439a1.522,1.522,0,0,1,1.251.656l10.153,14.641a1.522,1.522,0,0,1-1.251,2.391m-83.836-3.046h80.926l-8.04-11.6H41.889Z" fill="#fff"/>
    <path id="Path_10618" data-name="Path 10618" d="M42.577,127.5l1.7-2.457h60.062l1.7,2.457Z" fill="#43a3da"/>
    <path id="Path_10619" data-name="Path 10619" d="M74.038,51.122a14.163,14.163,0,0,1-8.156-2.741,5.509,5.509,0,0,1-1.343-1.343c-4.551-6.515-2.851-13.169.853-16.874s10.359-5.4,16.875-.852a5.513,5.513,0,0,1,1.343,1.344c4.549,6.515,2.849,13.169-.855,16.872a12.37,12.37,0,0,1-8.717,3.594M74.1,29.6a9.328,9.328,0,0,0-6.555,2.717c-2.6,2.6-4.294,7.559-.508,12.977a2.384,2.384,0,0,0,.588.589C73.043,49.667,78,47.975,80.6,45.374s4.293-7.558.51-12.975h0a2.406,2.406,0,0,0-.589-.589A11.161,11.161,0,0,0,74.1,29.6" fill="#fff"/>
    <path id="Path_10620" data-name="Path 10620" d="M94.546,82.85a1.522,1.522,0,0,1-1.522-1.523V56.578h-37.9V81.327a1.523,1.523,0,0,1-3.046,0V55.055A1.523,1.523,0,0,1,53.6,53.532H94.546a1.523,1.523,0,0,1,1.523,1.523V81.327a1.523,1.523,0,0,1-1.523,1.523" fill="#fff"/>
    <path id="Path_10621" data-name="Path 10621" d="M74.074,69.042a1.522,1.522,0,0,1-1.522-1.523V55.054a1.522,1.522,0,1,1,3.045,0V67.519a1.523,1.523,0,0,1-1.523,1.523" fill="#fff"/>
    <path id="Path_10622" data-name="Path 10622" d="M62.121,82.85A1.523,1.523,0,0,1,60.6,81.327V69.289a1.523,1.523,0,1,1,3.045,0V81.327a1.522,1.522,0,0,1-1.522,1.523" fill="#fff"/>
    <path id="Path_10623" data-name="Path 10623" d="M86.664,82.85a1.523,1.523,0,0,1-1.523-1.523V69.289a1.522,1.522,0,1,1,3.045,0V81.327a1.522,1.522,0,0,1-1.522,1.523" fill="#fff"/>
    <path id="Path_10624" data-name="Path 10624" d="M24.909,11.367a2.426,2.426,0,1,1,2.427-2.426,2.428,2.428,0,0,1-2.427,2.426m0-3.046a.62.62,0,1,0,.62.62.62.62,0,0,0-.62-.62" fill="#43a3da"/>
    <path id="Path_10625" data-name="Path 10625" d="M25.537,30.136a1.522,1.522,0,0,1-1.522-1.523V15.384H20.369a1.523,1.523,0,0,1,0-3.046h5.168a1.523,1.523,0,0,1,1.523,1.523V28.613a1.523,1.523,0,0,1-1.523,1.523" fill="#43a3da"/>
    <path id="Path_10626" data-name="Path 10626" d="M30.557,30.136H20.369a1.523,1.523,0,1,1,0-3.046H30.557a1.523,1.523,0,0,1,0,3.046" fill="#43a3da"/>
  </g>
</svg>
